<?xml version="1.0" encoding="UTF-8" standalone="no"?>
<!DOCTYPE svg PUBLIC "-//W3C//DTD SVG 1.1//EN"
 "http://www.w3.org/Graphics/SVG/1.1/DTD/svg11.dtd">
<!-- Generated by graphviz version 12.1.2 (20240928.0832)
 -->
<!-- Title: public.payments Pages: 1 -->
<svg width="703pt" height="787pt"
 viewBox="0.00 0.00 702.85 786.80" xmlns="http://www.w3.org/2000/svg" xmlns:xlink="http://www.w3.org/1999/xlink">
<g id="graph0" class="graph" transform="scale(1 1) rotate(0) translate(4 782.8)">
<title>public.payments</title>
<polygon fill="white" stroke="none" points="-4,4 -4,-782.8 698.85,-782.8 698.85,4 -4,4"/>
<!-- public.payments -->
<g id="node1" class="node">
<title>public.payments</title>
<polygon fill="#efefef" stroke="none" points="46.2,-697 46.2,-732.6 336.45,-732.6 336.45,-697 46.2,-697"/>
<polygon fill="none" stroke="black" points="46.2,-697 46.2,-732.6 336.45,-732.6 336.45,-697 46.2,-697"/>
<text text-anchor="start" x="69.84" y="-710.4" font-family="Arial Bold" font-size="18.00">public.payments</text>
<text text-anchor="start" x="188.32" y="-710.4" font-family="Arial" font-size="14.00">    </text>
<text text-anchor="start" x="219.44" y="-710.4" font-family="Arial" font-size="14.00" fill="#666666">[BASE TABLE]</text>
<polygon fill="none" stroke="black" points="46.2,-666.2 46.2,-697 336.45,-697 336.45,-666.2 46.2,-666.2"/>
<text text-anchor="start" x="53.2" y="-678.4" font-family="Arial" font-size="14.00">id </text>
<text text-anchor="start" x="67.99" y="-678.4" font-family="Arial" font-size="14.00" fill="#666666">[bigint]</text>
<polygon fill="none" stroke="black" points="46.2,-635.4 46.2,-666.2 336.45,-666.2 336.45,-635.4 46.2,-635.4"/>
<text text-anchor="start" x="53.2" y="-647.6" font-family="Arial" font-size="14.00">order_id </text>
<text text-anchor="start" x="108.45" y="-647.6" font-family="Arial" font-size="14.00" fill="#666666">[bigint]</text>
<polygon fill="none" stroke="black" points="46.2,-604.6 46.2,-635.4 336.45,-635.4 336.45,-604.6 46.2,-604.6"/>
<text text-anchor="start" x="53.2" y="-616.8" font-family="Arial" font-size="14.00">amount </text>
<text text-anchor="start" x="103.79" y="-616.8" font-family="Arial" font-size="14.00" fill="#666666">[numeric(10,2)]</text>
<polygon fill="none" stroke="black" points="46.2,-573.8 46.2,-604.6 336.45,-604.6 336.45,-573.8 46.2,-573.8"/>
<text text-anchor="start" x="53.2" y="-586" font-family="Arial" font-size="14.00">status </text>
<text text-anchor="start" x="94.44" y="-586" font-family="Arial" font-size="14.00" fill="#666666">[varchar(255)]</text>
<polygon fill="none" stroke="black" points="46.2,-543 46.2,-573.8 336.45,-573.8 336.45,-543 46.2,-543"/>
<text text-anchor="start" x="53.2" y="-555.2" font-family="Arial" font-size="14.00">provider </text>
<text text-anchor="start" x="107.67" y="-555.2" font-family="Arial" font-size="14.00" fill="#666666">[varchar(255)]</text>
<polygon fill="none" stroke="black" points="46.2,-512.2 46.2,-543 336.45,-543 336.45,-512.2 46.2,-512.2"/>
<text text-anchor="start" x="53.2" y="-524.4" font-family="Arial" font-size="14.00">provider_transaction_id </text>
<text text-anchor="start" x="202.62" y="-524.4" font-family="Arial" font-size="14.00" fill="#666666">[varchar(255)]</text>
<polygon fill="none" stroke="black" points="46.2,-481.4 46.2,-512.2 336.45,-512.2 336.45,-481.4 46.2,-481.4"/>
<text text-anchor="start" x="53.2" y="-493.6" font-family="Arial" font-size="14.00">paid_at </text>
<text text-anchor="start" x="103.02" y="-493.6" font-family="Arial" font-size="14.00" fill="#666666">[timestamp(0) without time zone]</text>
<polygon fill="none" stroke="black" points="46.2,-450.6 46.2,-481.4 336.45,-481.4 336.45,-450.6 46.2,-450.6"/>
<text text-anchor="start" x="53.2" y="-462.8" font-family="Arial" font-size="14.00">created_at </text>
<text text-anchor="start" x="123.25" y="-462.8" font-family="Arial" font-size="14.00" fill="#666666">[timestamp(0) without time zone]</text>
<polygon fill="none" stroke="black" points="46.2,-419.8 46.2,-450.6 336.45,-450.6 336.45,-419.8 46.2,-419.8"/>
<text text-anchor="start" x="53.2" y="-432" font-family="Arial" font-size="14.00">updated_at </text>
<text text-anchor="start" x="127.16" y="-432" font-family="Arial" font-size="14.00" fill="#666666">[timestamp(0) without time zone]</text>
<polygon fill="none" stroke="black" stroke-width="3" points="44.7,-418.3 44.7,-734.1 337.95,-734.1 337.95,-418.3 44.7,-418.3"/>
</g>
<!-- public.orders -->
<g id="node2" class="node">
<title>public.orders</title>
<polygon fill="#efefef" stroke="none" points="46.2,-258.8 46.2,-294.4 336.45,-294.4 336.45,-258.8 46.2,-258.8"/>
<polygon fill="none" stroke="black" points="46.2,-258.8 46.2,-294.4 336.45,-294.4 336.45,-258.8 46.2,-258.8"/>
<text text-anchor="start" x="81.85" y="-272.2" font-family="Arial Bold" font-size="18.00">public.orders</text>
<text text-anchor="start" x="176.32" y="-272.2" font-family="Arial" font-size="14.00">    </text>
<text text-anchor="start" x="207.44" y="-272.2" font-family="Arial" font-size="14.00" fill="#666666">[BASE TABLE]</text>
<polygon fill="none" stroke="black" points="46.2,-228 46.2,-258.8 336.45,-258.8 336.45,-228 46.2,-228"/>
<text text-anchor="start" x="53.2" y="-240.2" font-family="Arial" font-size="14.00">id </text>
<text text-anchor="start" x="67.99" y="-240.2" font-family="Arial" font-size="14.00" fill="#666666">[bigint]</text>
<polygon fill="none" stroke="black" points="46.2,-197.2 46.2,-228 336.45,-228 336.45,-197.2 46.2,-197.2"/>
<text text-anchor="start" x="53.2" y="-209.4" font-family="Arial" font-size="14.00">user_id </text>
<text text-anchor="start" x="103.01" y="-209.4" font-family="Arial" font-size="14.00" fill="#666666">[bigint]</text>
<polygon fill="none" stroke="black" points="46.2,-166.4 46.2,-197.2 336.45,-197.2 336.45,-166.4 46.2,-166.4"/>
<text text-anchor="start" x="53.2" y="-178.6" font-family="Arial" font-size="14.00">status </text>
<text text-anchor="start" x="94.44" y="-178.6" font-family="Arial" font-size="14.00" fill="#666666">[varchar(255)]</text>
<polygon fill="none" stroke="black" points="46.2,-135.6 46.2,-166.4 336.45,-166.4 336.45,-135.6 46.2,-135.6"/>
<text text-anchor="start" x="53.2" y="-147.8" font-family="Arial" font-size="14.00">total </text>
<text text-anchor="start" x="83.55" y="-147.8" font-family="Arial" font-size="14.00" fill="#666666">[numeric(10,2)]</text>
<polygon fill="none" stroke="black" points="46.2,-104.8 46.2,-135.6 336.45,-135.6 336.45,-104.8 46.2,-104.8"/>
<text text-anchor="start" x="53.2" y="-117" font-family="Arial" font-size="14.00">shipping_address </text>
<text text-anchor="start" x="166.83" y="-117" font-family="Arial" font-size="14.00" fill="#666666">[json]</text>
<polygon fill="none" stroke="black" points="46.2,-74 46.2,-104.8 336.45,-104.8 336.45,-74 46.2,-74"/>
<text text-anchor="start" x="53.2" y="-86.2" font-family="Arial" font-size="14.00">created_at </text>
<text text-anchor="start" x="123.25" y="-86.2" font-family="Arial" font-size="14.00" fill="#666666">[timestamp(0) without time zone]</text>
<polygon fill="none" stroke="black" points="46.2,-43.2 46.2,-74 336.45,-74 336.45,-43.2 46.2,-43.2"/>
<text text-anchor="start" x="53.2" y="-55.4" font-family="Arial" font-size="14.00">updated_at </text>
<text text-anchor="start" x="127.16" y="-55.4" font-family="Arial" font-size="14.00" fill="#666666">[timestamp(0) without time zone]</text>
</g>
<!-- public.payments&#45;&gt;public.orders -->
<g id="edge1" class="edge">
<title>public.payments:order_id&#45;&gt;public.orders:id</title>
<path fill="none" stroke="black" d="M347.65,-648.98C427.85,-619.59 424.45,-243.4 337.45,-243.4"/>
<polygon fill="black" stroke="black" points="347.63,-648.99 336.99,-646.31 342.38,-649.92 338.11,-650.68 338.11,-650.68 338.11,-650.68 342.38,-649.92 338.57,-655.17 347.63,-648.99"/>
<text text-anchor="start" x="344.45" y="-660.8" font-family="Arial" font-size="10.00">FOREIGN KEY (order_id) REFERENCES orders(id) ON DELETE RESTRICT</text>
</g>
</g>
</svg>
