<?xml version="1.0" encoding="UTF-8" standalone="no"?>
<!DOCTYPE svg PUBLIC "-//W3C//DTD SVG 1.1//EN"
 "http://www.w3.org/Graphics/SVG/1.1/DTD/svg11.dtd">
<!-- Generated by graphviz version 12.1.2 (20240928.0832)
 -->
<!-- Title: public.orders Pages: 1 -->
<svg width="910pt" height="1253pt"
 viewBox="0.00 0.00 910.36 1252.80" xmlns="http://www.w3.org/2000/svg" xmlns:xlink="http://www.w3.org/1999/xlink">
<g id="graph0" class="graph" transform="scale(1 1) rotate(0) translate(4 1248.8)">
<title>public.orders</title>
<polygon fill="white" stroke="none" points="-4,4 -4,-1248.8 906.36,-1248.8 906.36,4 -4,4"/>
<!-- public.orders -->
<g id="node1" class="node">
<title>public.orders</title>
<polygon fill="#efefef" stroke="none" points="261.49,-727.8 261.49,-763.4 551.74,-763.4 551.74,-727.8 261.49,-727.8"/>
<polygon fill="none" stroke="black" points="261.49,-727.8 261.49,-763.4 551.74,-763.4 551.74,-727.8 261.49,-727.8"/>
<text text-anchor="start" x="297.13" y="-741.2" font-family="Arial Bold" font-size="18.00">public.orders</text>
<text text-anchor="start" x="391.61" y="-741.2" font-family="Arial" font-size="14.00">    </text>
<text text-anchor="start" x="422.73" y="-741.2" font-family="Arial" font-size="14.00" fill="#666666">[BASE TABLE]</text>
<polygon fill="none" stroke="black" points="261.49,-697 261.49,-727.8 551.74,-727.8 551.74,-697 261.49,-697"/>
<text text-anchor="start" x="268.49" y="-709.2" font-family="Arial" font-size="14.00">id </text>
<text text-anchor="start" x="283.28" y="-709.2" font-family="Arial" font-size="14.00" fill="#666666">[bigint]</text>
<polygon fill="none" stroke="black" points="261.49,-666.2 261.49,-697 551.74,-697 551.74,-666.2 261.49,-666.2"/>
<text text-anchor="start" x="268.49" y="-678.4" font-family="Arial" font-size="14.00">user_id </text>
<text text-anchor="start" x="318.3" y="-678.4" font-family="Arial" font-size="14.00" fill="#666666">[bigint]</text>
<polygon fill="none" stroke="black" points="261.49,-635.4 261.49,-666.2 551.74,-666.2 551.74,-635.4 261.49,-635.4"/>
<text text-anchor="start" x="268.49" y="-647.6" font-family="Arial" font-size="14.00">status </text>
<text text-anchor="start" x="309.73" y="-647.6" font-family="Arial" font-size="14.00" fill="#666666">[varchar(255)]</text>
<polygon fill="none" stroke="black" points="261.49,-604.6 261.49,-635.4 551.74,-635.4 551.74,-604.6 261.49,-604.6"/>
<text text-anchor="start" x="268.49" y="-616.8" font-family="Arial" font-size="14.00">total </text>
<text text-anchor="start" x="298.84" y="-616.8" font-family="Arial" font-size="14.00" fill="#666666">[numeric(10,2)]</text>
<polygon fill="none" stroke="black" points="261.49,-573.8 261.49,-604.6 551.74,-604.6 551.74,-573.8 261.49,-573.8"/>
<text text-anchor="start" x="268.49" y="-586" font-family="Arial" font-size="14.00">shipping_address </text>
<text text-anchor="start" x="382.12" y="-586" font-family="Arial" font-size="14.00" fill="#666666">[json]</text>
<polygon fill="none" stroke="black" points="261.49,-543 261.49,-573.8 551.74,-573.8 551.74,-543 261.49,-543"/>
<text text-anchor="start" x="268.49" y="-555.2" font-family="Arial" font-size="14.00">created_at </text>
<text text-anchor="start" x="338.54" y="-555.2" font-family="Arial" font-size="14.00" fill="#666666">[timestamp(0) without time zone]</text>
<polygon fill="none" stroke="black" points="261.49,-512.2 261.49,-543 551.74,-543 551.74,-512.2 261.49,-512.2"/>
<text text-anchor="start" x="268.49" y="-524.4" font-family="Arial" font-size="14.00">updated_at </text>
<text text-anchor="start" x="342.45" y="-524.4" font-family="Arial" font-size="14.00" fill="#666666">[timestamp(0) without time zone]</text>
<polygon fill="none" stroke="black" stroke-width="3" points="259.99,-510.7 259.99,-764.9 553.24,-764.9 553.24,-510.7 259.99,-510.7"/>
</g>
<!-- public.users -->
<g id="node4" class="node">
<title>public.users</title>
<polygon fill="#efefef" stroke="none" points="243.61,-351.2 243.61,-386.8 569.63,-386.8 569.63,-351.2 243.61,-351.2"/>
<polygon fill="none" stroke="black" points="243.61,-351.2 243.61,-386.8 569.63,-386.8 569.63,-351.2 243.61,-351.2"/>
<text text-anchor="start" x="301.13" y="-364.6" font-family="Arial Bold" font-size="18.00">public.users</text>
<text text-anchor="start" x="387.61" y="-364.6" font-family="Arial" font-size="14.00">    </text>
<text text-anchor="start" x="418.73" y="-364.6" font-family="Arial" font-size="14.00" fill="#666666">[BASE TABLE]</text>
<polygon fill="none" stroke="black" points="243.61,-320.4 243.61,-351.2 569.63,-351.2 569.63,-320.4 243.61,-320.4"/>
<text text-anchor="start" x="250.61" y="-332.6" font-family="Arial" font-size="14.00">id </text>
<text text-anchor="start" x="265.39" y="-332.6" font-family="Arial" font-size="14.00" fill="#666666">[bigint]</text>
<polygon fill="none" stroke="black" points="243.61,-289.6 243.61,-320.4 569.63,-320.4 569.63,-289.6 243.61,-289.6"/>
<text text-anchor="start" x="250.61" y="-301.8" font-family="Arial" font-size="14.00">name </text>
<text text-anchor="start" x="289.52" y="-301.8" font-family="Arial" font-size="14.00" fill="#666666">[varchar(255)]</text>
<polygon fill="none" stroke="black" points="243.61,-258.8 243.61,-289.6 569.63,-289.6 569.63,-258.8 243.61,-258.8"/>
<text text-anchor="start" x="250.61" y="-271" font-family="Arial" font-size="14.00">email </text>
<text text-anchor="start" x="287.95" y="-271" font-family="Arial" font-size="14.00" fill="#666666">[varchar(255)]</text>
<polygon fill="none" stroke="black" points="243.61,-228 243.61,-258.8 569.63,-258.8 569.63,-228 243.61,-228"/>
<text text-anchor="start" x="250.61" y="-240.2" font-family="Arial" font-size="14.00">email_verified_at </text>
<text text-anchor="start" x="360.33" y="-240.2" font-family="Arial" font-size="14.00" fill="#666666">[timestamp(0) without time zone]</text>
<polygon fill="none" stroke="black" points="243.61,-197.2 243.61,-228 569.63,-228 569.63,-197.2 243.61,-197.2"/>
<text text-anchor="start" x="250.61" y="-209.4" font-family="Arial" font-size="14.00">password </text>
<text text-anchor="start" x="314.41" y="-209.4" font-family="Arial" font-size="14.00" fill="#666666">[varchar(255)]</text>
<polygon fill="none" stroke="black" points="243.61,-166.4 243.61,-197.2 569.63,-197.2 569.63,-166.4 243.61,-166.4"/>
<text text-anchor="start" x="250.61" y="-178.6" font-family="Arial" font-size="14.00">role </text>
<text text-anchor="start" x="277.84" y="-178.6" font-family="Arial" font-size="14.00" fill="#666666">[varchar(255)]</text>
<polygon fill="none" stroke="black" points="243.61,-135.6 243.61,-166.4 569.63,-166.4 569.63,-135.6 243.61,-135.6"/>
<text text-anchor="start" x="250.61" y="-147.8" font-family="Arial" font-size="14.00">remember_token </text>
<text text-anchor="start" x="360.32" y="-147.8" font-family="Arial" font-size="14.00" fill="#666666">[varchar(100)]</text>
<polygon fill="none" stroke="black" points="243.61,-104.8 243.61,-135.6 569.63,-135.6 569.63,-104.8 243.61,-104.8"/>
<text text-anchor="start" x="250.61" y="-117" font-family="Arial" font-size="14.00">created_at </text>
<text text-anchor="start" x="320.65" y="-117" font-family="Arial" font-size="14.00" fill="#666666">[timestamp(0) without time zone]</text>
<polygon fill="none" stroke="black" points="243.61,-74 243.61,-104.8 569.63,-104.8 569.63,-74 243.61,-74"/>
<text text-anchor="start" x="250.61" y="-86.2" font-family="Arial" font-size="14.00">updated_at </text>
<text text-anchor="start" x="324.56" y="-86.2" font-family="Arial" font-size="14.00" fill="#666666">[timestamp(0) without time zone]</text>
<polygon fill="none" stroke="black" points="243.61,-43.2 243.61,-74 569.63,-74 569.63,-43.2 243.61,-43.2"/>
<text text-anchor="start" x="250.61" y="-55.4" font-family="Arial" font-size="14.00">deleted_at </text>
<text text-anchor="start" x="319.89" y="-55.4" font-family="Arial" font-size="14.00" fill="#666666">[timestamp(0) without time zone]</text>
</g>
<!-- public.orders&#45;&gt;public.users -->
<g id="edge3" class="edge">
<title>public.orders:user_id&#45;&gt;public.users:id</title>
<path fill="none" stroke="black" d="M562.91,-681.08C707.35,-666.24 721.06,-335.8 570.63,-335.8"/>
<polygon fill="black" stroke="black" points="563.06,-681.08 552.85,-677.09 557.74,-681.35 553.41,-681.57 553.41,-681.57 553.41,-681.57 557.74,-681.35 553.31,-686.08 563.06,-681.08"/>
<text text-anchor="start" x="559.74" y="-691.6" font-family="Arial" font-size="10.00">FOREIGN KEY (user_id) REFERENCES users(id) ON DELETE RESTRICT</text>
</g>
<!-- public.order_items -->
<g id="node2" class="node">
<title>public.order_items</title>
<polygon fill="#efefef" stroke="none" points="64.49,-1135.2 64.49,-1170.8 354.74,-1170.8 354.74,-1135.2 64.49,-1135.2"/>
<polygon fill="none" stroke="black" points="64.49,-1135.2 64.49,-1170.8 354.74,-1170.8 354.74,-1135.2 64.49,-1135.2"/>
<text text-anchor="start" x="79.64" y="-1148.6" font-family="Arial Bold" font-size="18.00">public.order_items</text>
<text text-anchor="start" x="215.1" y="-1148.6" font-family="Arial" font-size="14.00">    </text>
<text text-anchor="start" x="246.22" y="-1148.6" font-family="Arial" font-size="14.00" fill="#666666">[BASE TABLE]</text>
<polygon fill="none" stroke="black" points="64.49,-1104.4 64.49,-1135.2 354.74,-1135.2 354.74,-1104.4 64.49,-1104.4"/>
<text text-anchor="start" x="71.49" y="-1116.6" font-family="Arial" font-size="14.00">id </text>
<text text-anchor="start" x="86.28" y="-1116.6" font-family="Arial" font-size="14.00" fill="#666666">[bigint]</text>
<polygon fill="none" stroke="black" points="64.49,-1073.6 64.49,-1104.4 354.74,-1104.4 354.74,-1073.6 64.49,-1073.6"/>
<text text-anchor="start" x="71.49" y="-1085.8" font-family="Arial" font-size="14.00">order_id </text>
<text text-anchor="start" x="126.74" y="-1085.8" font-family="Arial" font-size="14.00" fill="#666666">[bigint]</text>
<polygon fill="none" stroke="black" points="64.49,-1042.8 64.49,-1073.6 354.74,-1073.6 354.74,-1042.8 64.49,-1042.8"/>
<text text-anchor="start" x="71.49" y="-1055" font-family="Arial" font-size="14.00">product_id </text>
<text text-anchor="start" x="140.76" y="-1055" font-family="Arial" font-size="14.00" fill="#666666">[bigint]</text>
<polygon fill="none" stroke="black" points="64.49,-1012 64.49,-1042.8 354.74,-1042.8 354.74,-1012 64.49,-1012"/>
<text text-anchor="start" x="71.49" y="-1024.2" font-family="Arial" font-size="14.00">quantity </text>
<text text-anchor="start" x="124.41" y="-1024.2" font-family="Arial" font-size="14.00" fill="#666666">[integer]</text>
<polygon fill="none" stroke="black" points="64.49,-981.2 64.49,-1012 354.74,-1012 354.74,-981.2 64.49,-981.2"/>
<text text-anchor="start" x="71.49" y="-993.4" font-family="Arial" font-size="14.00">unit_price </text>
<text text-anchor="start" x="136.08" y="-993.4" font-family="Arial" font-size="14.00" fill="#666666">[numeric(10,2)]</text>
<polygon fill="none" stroke="black" points="64.49,-950.4 64.49,-981.2 354.74,-981.2 354.74,-950.4 64.49,-950.4"/>
<text text-anchor="start" x="71.49" y="-962.6" font-family="Arial" font-size="14.00">created_at </text>
<text text-anchor="start" x="141.54" y="-962.6" font-family="Arial" font-size="14.00" fill="#666666">[timestamp(0) without time zone]</text>
<polygon fill="none" stroke="black" points="64.49,-919.6 64.49,-950.4 354.74,-950.4 354.74,-919.6 64.49,-919.6"/>
<text text-anchor="start" x="71.49" y="-931.8" font-family="Arial" font-size="14.00">updated_at </text>
<text text-anchor="start" x="145.45" y="-931.8" font-family="Arial" font-size="14.00" fill="#666666">[timestamp(0) without time zone]</text>
</g>
<!-- public.order_items&#45;&gt;public.orders -->
<g id="edge1" class="edge">
<title>public.order_items:order_id&#45;&gt;public.orders:id</title>
<path fill="none" stroke="black" d="M365.5,-1086.02C398.87,-1063.12 374.74,-915.09 354.74,-876.4 331.34,-831.11 285.02,-854.83 261.49,-809.6 241.55,-771.27 217.29,-712.4 260.49,-712.4"/>
<polygon fill="black" stroke="black" points="365.63,-1085.98 354.75,-1084.6 360.52,-1087.54 356.38,-1088.8 356.38,-1088.8 356.38,-1088.8 360.52,-1087.54 357.38,-1093.21 365.63,-1085.98"/>
<text text-anchor="start" x="7" y="-1099" font-family="Arial" font-size="10.00">FOREIGN KEY (order_id) REFERENCES orders(id) ON DELETE CASCADE</text>
</g>
<!-- public.payments -->
<g id="node3" class="node">
<title>public.payments</title>
<polygon fill="#efefef" stroke="none" points="459.49,-1166 459.49,-1201.6 749.74,-1201.6 749.74,-1166 459.49,-1166"/>
<polygon fill="none" stroke="black" points="459.49,-1166 459.49,-1201.6 749.74,-1201.6 749.74,-1166 459.49,-1166"/>
<text text-anchor="start" x="483.13" y="-1179.4" font-family="Arial Bold" font-size="18.00">public.payments</text>
<text text-anchor="start" x="601.61" y="-1179.4" font-family="Arial" font-size="14.00">    </text>
<text text-anchor="start" x="632.73" y="-1179.4" font-family="Arial" font-size="14.00" fill="#666666">[BASE TABLE]</text>
<polygon fill="none" stroke="black" points="459.49,-1135.2 459.49,-1166 749.74,-1166 749.74,-1135.2 459.49,-1135.2"/>
<text text-anchor="start" x="466.49" y="-1147.4" font-family="Arial" font-size="14.00">id </text>
<text text-anchor="start" x="481.28" y="-1147.4" font-family="Arial" font-size="14.00" fill="#666666">[bigint]</text>
<polygon fill="none" stroke="black" points="459.49,-1104.4 459.49,-1135.2 749.74,-1135.2 749.74,-1104.4 459.49,-1104.4"/>
<text text-anchor="start" x="466.49" y="-1116.6" font-family="Arial" font-size="14.00">order_id </text>
<text text-anchor="start" x="521.74" y="-1116.6" font-family="Arial" font-size="14.00" fill="#666666">[bigint]</text>
<polygon fill="none" stroke="black" points="459.49,-1073.6 459.49,-1104.4 749.74,-1104.4 749.74,-1073.6 459.49,-1073.6"/>
<text text-anchor="start" x="466.49" y="-1085.8" font-family="Arial" font-size="14.00">amount </text>
<text text-anchor="start" x="517.08" y="-1085.8" font-family="Arial" font-size="14.00" fill="#666666">[numeric(10,2)]</text>
<polygon fill="none" stroke="black" points="459.49,-1042.8 459.49,-1073.6 749.74,-1073.6 749.74,-1042.8 459.49,-1042.8"/>
<text text-anchor="start" x="466.49" y="-1055" font-family="Arial" font-size="14.00">status </text>
<text text-anchor="start" x="507.73" y="-1055" font-family="Arial" font-size="14.00" fill="#666666">[varchar(255)]</text>
<polygon fill="none" stroke="black" points="459.49,-1012 459.49,-1042.8 749.74,-1042.8 749.74,-1012 459.49,-1012"/>
<text text-anchor="start" x="466.49" y="-1024.2" font-family="Arial" font-size="14.00">provider </text>
<text text-anchor="start" x="520.96" y="-1024.2" font-family="Arial" font-size="14.00" fill="#666666">[varchar(255)]</text>
<polygon fill="none" stroke="black" points="459.49,-981.2 459.49,-1012 749.74,-1012 749.74,-981.2 459.49,-981.2"/>
<text text-anchor="start" x="466.49" y="-993.4" font-family="Arial" font-size="14.00">provider_transaction_id </text>
<text text-anchor="start" x="615.91" y="-993.4" font-family="Arial" font-size="14.00" fill="#666666">[varchar(255)]</text>
<polygon fill="none" stroke="black" points="459.49,-950.4 459.49,-981.2 749.74,-981.2 749.74,-950.4 459.49,-950.4"/>
<text text-anchor="start" x="466.49" y="-962.6" font-family="Arial" font-size="14.00">paid_at </text>
<text text-anchor="start" x="516.31" y="-962.6" font-family="Arial" font-size="14.00" fill="#666666">[timestamp(0) without time zone]</text>
<polygon fill="none" stroke="black" points="459.49,-919.6 459.49,-950.4 749.74,-950.4 749.74,-919.6 459.49,-919.6"/>
<text text-anchor="start" x="466.49" y="-931.8" font-family="Arial" font-size="14.00">created_at </text>
<text text-anchor="start" x="536.54" y="-931.8" font-family="Arial" font-size="14.00" fill="#666666">[timestamp(0) without time zone]</text>
<polygon fill="none" stroke="black" points="459.49,-888.8 459.49,-919.6 749.74,-919.6 749.74,-888.8 459.49,-888.8"/>
<text text-anchor="start" x="466.49" y="-901" font-family="Arial" font-size="14.00">updated_at </text>
<text text-anchor="start" x="540.45" y="-901" font-family="Arial" font-size="14.00" fill="#666666">[timestamp(0) without time zone]</text>
</g>
<!-- public.payments&#45;&gt;public.orders -->
<g id="edge2" class="edge">
<title>public.payments:order_id&#45;&gt;public.orders:id</title>
<path fill="none" stroke="black" d="M448.38,-1117.43C400.91,-1093.32 427.11,-892.81 459.49,-845.6 484.38,-809.3 526.73,-845.81 551.74,-809.6 576.3,-774.05 595.95,-712.4 552.74,-712.4"/>
<polygon fill="black" stroke="black" points="448.43,-1117.44 457.13,-1124.1 453.62,-1118.66 457.84,-1119.65 457.84,-1119.65 457.84,-1119.65 453.62,-1118.66 459.19,-1115.34 448.43,-1117.44"/>
<text text-anchor="start" x="465.49" y="-1129.8" font-family="Arial" font-size="10.00">FOREIGN KEY (order_id) REFERENCES orders(id) ON DELETE RESTRICT</text>
</g>
</g>
</svg>
