<?xml version="1.0" encoding="UTF-8" standalone="no"?>
<!DOCTYPE svg PUBLIC "-//W3C//DTD SVG 1.1//EN"
 "http://www.w3.org/Graphics/SVG/1.1/DTD/svg11.dtd">
<!-- Generated by graphviz version 12.1.2 (20240928.0832)
 -->
<!-- Title: public.categories Pages: 1 -->
<svg width="736pt" height="818pt"
 viewBox="0.00 0.00 735.66 817.60" xmlns="http://www.w3.org/2000/svg" xmlns:xlink="http://www.w3.org/1999/xlink">
<g id="graph0" class="graph" transform="scale(1 1) rotate(0) translate(4 813.6)">
<title>public.categories</title>
<polygon fill="white" stroke="none" points="-4,4 -4,-813.6 731.66,-813.6 731.66,4 -4,4"/>
<!-- public.categories -->
<g id="node1" class="node">
<title>public.categories</title>
<polygon fill="#efefef" stroke="none" points="46.2,-231 46.2,-266.6 336.45,-266.6 336.45,-231 46.2,-231"/>
<polygon fill="none" stroke="black" points="46.2,-231 46.2,-266.6 336.45,-266.6 336.45,-231 46.2,-231"/>
<text text-anchor="start" x="67.86" y="-244.4" font-family="Arial Bold" font-size="18.00">public.categories</text>
<text text-anchor="start" x="190.31" y="-244.4" font-family="Arial" font-size="14.00">    </text>
<text text-anchor="start" x="221.42" y="-244.4" font-family="Arial" font-size="14.00" fill="#666666">[BASE TABLE]</text>
<polygon fill="none" stroke="black" points="46.2,-200.2 46.2,-231 336.45,-231 336.45,-200.2 46.2,-200.2"/>
<text text-anchor="start" x="53.2" y="-212.4" font-family="Arial" font-size="14.00">id </text>
<text text-anchor="start" x="67.99" y="-212.4" font-family="Arial" font-size="14.00" fill="#666666">[bigint]</text>
<polygon fill="none" stroke="black" points="46.2,-169.4 46.2,-200.2 336.45,-200.2 336.45,-169.4 46.2,-169.4"/>
<text text-anchor="start" x="53.2" y="-181.6" font-family="Arial" font-size="14.00">name </text>
<text text-anchor="start" x="92.11" y="-181.6" font-family="Arial" font-size="14.00" fill="#666666">[varchar(255)]</text>
<polygon fill="none" stroke="black" points="46.2,-138.6 46.2,-169.4 336.45,-169.4 336.45,-138.6 46.2,-138.6"/>
<text text-anchor="start" x="53.2" y="-150.8" font-family="Arial" font-size="14.00">slug </text>
<text text-anchor="start" x="82.77" y="-150.8" font-family="Arial" font-size="14.00" fill="#666666">[varchar(255)]</text>
<polygon fill="none" stroke="black" points="46.2,-107.8 46.2,-138.6 336.45,-138.6 336.45,-107.8 46.2,-107.8"/>
<text text-anchor="start" x="53.2" y="-120" font-family="Arial" font-size="14.00">parent_id </text>
<text text-anchor="start" x="115.47" y="-120" font-family="Arial" font-size="14.00" fill="#666666">[bigint]</text>
<polygon fill="none" stroke="black" points="46.2,-77 46.2,-107.8 336.45,-107.8 336.45,-77 46.2,-77"/>
<text text-anchor="start" x="53.2" y="-89.2" font-family="Arial" font-size="14.00">created_at </text>
<text text-anchor="start" x="123.25" y="-89.2" font-family="Arial" font-size="14.00" fill="#666666">[timestamp(0) without time zone]</text>
<polygon fill="none" stroke="black" points="46.2,-46.2 46.2,-77 336.45,-77 336.45,-46.2 46.2,-46.2"/>
<text text-anchor="start" x="53.2" y="-58.4" font-family="Arial" font-size="14.00">updated_at </text>
<text text-anchor="start" x="127.16" y="-58.4" font-family="Arial" font-size="14.00" fill="#666666">[timestamp(0) without time zone]</text>
<polygon fill="none" stroke="black" stroke-width="3" points="44.7,-44.7 44.7,-268.1 337.95,-268.1 337.95,-44.7 44.7,-44.7"/>
</g>
<!-- public.categories&#45;&gt;public.categories -->
<g id="edge1" class="edge">
<title>public.categories:parent_id&#45;&gt;public.categories:id</title>
<path fill="none" stroke="black" d="M192.93,-148.31C200.29,-280.01 199.76,-524.2 191.33,-524.2 182.7,-524.2 182.34,-353.14 190.26,-230.99"/>
<polygon fill="black" stroke="black" points="192.95,-148.57 196.85,-138.32 192.63,-143.25 192.38,-138.92 192.38,-138.92 192.38,-138.92 192.63,-143.25 187.87,-138.85 192.95,-148.57"/>
<text text-anchor="start" x="199.34" y="-148.25" font-family="Arial" font-size="10.00">FOREIGN KEY (parent_id) REFERENCES categories(id) ON DELETE SET NULL</text>
</g>
<!-- public.products -->
<g id="node2" class="node">
<title>public.products</title>
<polygon fill="#efefef" stroke="none" points="46.2,-730.8 46.2,-766.4 336.45,-766.4 336.45,-730.8 46.2,-730.8"/>
<polygon fill="none" stroke="black" points="46.2,-730.8 46.2,-766.4 336.45,-766.4 336.45,-730.8 46.2,-730.8"/>
<text text-anchor="start" x="73.34" y="-744.2" font-family="Arial Bold" font-size="18.00">public.products</text>
<text text-anchor="start" x="184.82" y="-744.2" font-family="Arial" font-size="14.00">    </text>
<text text-anchor="start" x="215.94" y="-744.2" font-family="Arial" font-size="14.00" fill="#666666">[BASE TABLE]</text>
<polygon fill="none" stroke="black" points="46.2,-700 46.2,-730.8 336.45,-730.8 336.45,-700 46.2,-700"/>
<text text-anchor="start" x="53.2" y="-712.2" font-family="Arial" font-size="14.00">id </text>
<text text-anchor="start" x="67.99" y="-712.2" font-family="Arial" font-size="14.00" fill="#666666">[bigint]</text>
<polygon fill="none" stroke="black" points="46.2,-669.2 46.2,-700 336.45,-700 336.45,-669.2 46.2,-669.2"/>
<text text-anchor="start" x="53.2" y="-681.4" font-family="Arial" font-size="14.00">category_id </text>
<text text-anchor="start" x="129.47" y="-681.4" font-family="Arial" font-size="14.00" fill="#666666">[bigint]</text>
<polygon fill="none" stroke="black" points="46.2,-638.4 46.2,-669.2 336.45,-669.2 336.45,-638.4 46.2,-638.4"/>
<text text-anchor="start" x="53.2" y="-650.6" font-family="Arial" font-size="14.00">name </text>
<text text-anchor="start" x="92.11" y="-650.6" font-family="Arial" font-size="14.00" fill="#666666">[varchar(255)]</text>
<polygon fill="none" stroke="black" points="46.2,-607.6 46.2,-638.4 336.45,-638.4 336.45,-607.6 46.2,-607.6"/>
<text text-anchor="start" x="53.2" y="-619.8" font-family="Arial" font-size="14.00">slug </text>
<text text-anchor="start" x="82.77" y="-619.8" font-family="Arial" font-size="14.00" fill="#666666">[varchar(255)]</text>
<polygon fill="none" stroke="black" points="46.2,-576.8 46.2,-607.6 336.45,-607.6 336.45,-576.8 46.2,-576.8"/>
<text text-anchor="start" x="53.2" y="-589" font-family="Arial" font-size="14.00">description </text>
<text text-anchor="start" x="124.79" y="-589" font-family="Arial" font-size="14.00" fill="#666666">[text]</text>
<polygon fill="none" stroke="black" points="46.2,-546 46.2,-576.8 336.45,-576.8 336.45,-546 46.2,-546"/>
<text text-anchor="start" x="53.2" y="-558.2" font-family="Arial" font-size="14.00">price </text>
<text text-anchor="start" x="87.43" y="-558.2" font-family="Arial" font-size="14.00" fill="#666666">[numeric(10,2)]</text>
<polygon fill="none" stroke="black" points="46.2,-515.2 46.2,-546 336.45,-546 336.45,-515.2 46.2,-515.2"/>
<text text-anchor="start" x="53.2" y="-527.4" font-family="Arial" font-size="14.00">sku </text>
<text text-anchor="start" x="78.88" y="-527.4" font-family="Arial" font-size="14.00" fill="#666666">[varchar(255)]</text>
<polygon fill="none" stroke="black" points="46.2,-484.4 46.2,-515.2 336.45,-515.2 336.45,-484.4 46.2,-484.4"/>
<text text-anchor="start" x="53.2" y="-496.6" font-family="Arial" font-size="14.00">is_active </text>
<text text-anchor="start" x="111.56" y="-496.6" font-family="Arial" font-size="14.00" fill="#666666">[boolean]</text>
<polygon fill="none" stroke="black" points="46.2,-453.6 46.2,-484.4 336.45,-484.4 336.45,-453.6 46.2,-453.6"/>
<text text-anchor="start" x="53.2" y="-465.8" font-family="Arial" font-size="14.00">created_at </text>
<text text-anchor="start" x="123.25" y="-465.8" font-family="Arial" font-size="14.00" fill="#666666">[timestamp(0) without time zone]</text>
<polygon fill="none" stroke="black" points="46.2,-422.8 46.2,-453.6 336.45,-453.6 336.45,-422.8 46.2,-422.8"/>
<text text-anchor="start" x="53.2" y="-435" font-family="Arial" font-size="14.00">updated_at </text>
<text text-anchor="start" x="127.16" y="-435" font-family="Arial" font-size="14.00" fill="#666666">[timestamp(0) without time zone]</text>
<polygon fill="none" stroke="black" points="46.2,-392 46.2,-422.8 336.45,-422.8 336.45,-392 46.2,-392"/>
<text text-anchor="start" x="53.2" y="-404.2" font-family="Arial" font-size="14.00">deleted_at </text>
<text text-anchor="start" x="122.48" y="-404.2" font-family="Arial" font-size="14.00" fill="#666666">[timestamp(0) without time zone]</text>
</g>
<!-- public.products&#45;&gt;public.categories -->
<g id="edge2" class="edge">
<title>public.products:category_id&#45;&gt;public.categories:id</title>
<path fill="none" stroke="black" d="M346.35,-679.65C389.37,-629.53 386.41,-215.6 337.45,-215.6"/>
<polygon fill="black" stroke="black" points="346.48,-679.57 335.56,-680.51 341.82,-682.17 338.04,-684.27 338.04,-684.27 338.04,-684.27 341.82,-682.17 339.93,-688.37 346.48,-679.57"/>
<text text-anchor="start" x="344.45" y="-694.6" font-family="Arial" font-size="10.00">FOREIGN KEY (category_id) REFERENCES categories(id) ON DELETE RESTRICT</text>
</g>
</g>
</svg>
