<?xml version="1.0" encoding="UTF-8" standalone="no"?>
<!DOCTYPE svg PUBLIC "-//W3C//DTD SVG 1.1//EN"
 "http://www.w3.org/Graphics/SVG/1.1/DTD/svg11.dtd">
<!-- Generated by graphviz version 12.1.2 (20240928.0832)
 -->
<!-- Title: public.inventory_movements Pages: 1 -->
<svg width="782pt" height="879pt"
 viewBox="0.00 0.00 781.57 879.20" xmlns="http://www.w3.org/2000/svg" xmlns:xlink="http://www.w3.org/1999/xlink">
<g id="graph0" class="graph" transform="scale(1 1) rotate(0) translate(4 875.2)">
<title>public.inventory_movements</title>
<polygon fill="white" stroke="none" points="-4,4 -4,-875.2 777.57,-875.2 777.57,4 -4,4"/>
<!-- public.inventory_movements -->
<g id="node1" class="node">
<title>public.inventory_movements</title>
<polygon fill="#efefef" stroke="none" points="46.2,-789.4 46.2,-825 395.15,-825 395.15,-789.4 46.2,-789.4"/>
<polygon fill="none" stroke="black" points="46.2,-789.4 46.2,-825 395.15,-825 395.15,-789.4 46.2,-789.4"/>
<text text-anchor="start" x="53.2" y="-802.8" font-family="Arial Bold" font-size="18.00">public.inventory_movements</text>
<text text-anchor="start" x="263.66" y="-802.8" font-family="Arial" font-size="14.00">    </text>
<text text-anchor="start" x="294.78" y="-802.8" font-family="Arial" font-size="14.00" fill="#666666">[BASE TABLE]</text>
<polygon fill="none" stroke="black" points="46.2,-758.6 46.2,-789.4 395.15,-789.4 395.15,-758.6 46.2,-758.6"/>
<text text-anchor="start" x="53.2" y="-770.8" font-family="Arial" font-size="14.00">id </text>
<text text-anchor="start" x="67.99" y="-770.8" font-family="Arial" font-size="14.00" fill="#666666">[bigint]</text>
<polygon fill="none" stroke="black" points="46.2,-727.8 46.2,-758.6 395.15,-758.6 395.15,-727.8 46.2,-727.8"/>
<text text-anchor="start" x="53.2" y="-740" font-family="Arial" font-size="14.00">product_id </text>
<text text-anchor="start" x="122.47" y="-740" font-family="Arial" font-size="14.00" fill="#666666">[bigint]</text>
<polygon fill="none" stroke="black" points="46.2,-697 46.2,-727.8 395.15,-727.8 395.15,-697 46.2,-697"/>
<text text-anchor="start" x="53.2" y="-709.2" font-family="Arial" font-size="14.00">type </text>
<text text-anchor="start" x="83.55" y="-709.2" font-family="Arial" font-size="14.00" fill="#666666">[varchar(255)]</text>
<polygon fill="none" stroke="black" points="46.2,-666.2 46.2,-697 395.15,-697 395.15,-666.2 46.2,-666.2"/>
<text text-anchor="start" x="53.2" y="-678.4" font-family="Arial" font-size="14.00">quantity </text>
<text text-anchor="start" x="106.12" y="-678.4" font-family="Arial" font-size="14.00" fill="#666666">[integer]</text>
<polygon fill="none" stroke="black" points="46.2,-635.4 46.2,-666.2 395.15,-666.2 395.15,-635.4 46.2,-635.4"/>
<text text-anchor="start" x="53.2" y="-647.6" font-family="Arial" font-size="14.00">reference_type </text>
<text text-anchor="start" x="150.48" y="-647.6" font-family="Arial" font-size="14.00" fill="#666666">[varchar(255)]</text>
<polygon fill="none" stroke="black" points="46.2,-604.6 46.2,-635.4 395.15,-635.4 395.15,-604.6 46.2,-604.6"/>
<text text-anchor="start" x="53.2" y="-616.8" font-family="Arial" font-size="14.00">reference_id </text>
<text text-anchor="start" x="134.92" y="-616.8" font-family="Arial" font-size="14.00" fill="#666666">[bigint]</text>
<polygon fill="none" stroke="black" points="46.2,-573.8 46.2,-604.6 395.15,-604.6 395.15,-573.8 46.2,-573.8"/>
<text text-anchor="start" x="53.2" y="-586" font-family="Arial" font-size="14.00">created_at </text>
<text text-anchor="start" x="123.25" y="-586" font-family="Arial" font-size="14.00" fill="#666666">[timestamp(0) without time zone]</text>
<polygon fill="none" stroke="black" points="46.2,-543 46.2,-573.8 395.15,-573.8 395.15,-543 46.2,-543"/>
<text text-anchor="start" x="53.2" y="-555.2" font-family="Arial" font-size="14.00">updated_at </text>
<text text-anchor="start" x="127.16" y="-555.2" font-family="Arial" font-size="14.00" fill="#666666">[timestamp(0) without time zone]</text>
<polygon fill="none" stroke="black" stroke-width="3" points="44.7,-541.5 44.7,-826.5 396.65,-826.5 396.65,-541.5 44.7,-541.5"/>
</g>
<!-- public.products -->
<g id="node2" class="node">
<title>public.products</title>
<polygon fill="#efefef" stroke="none" points="75.55,-382 75.55,-417.6 365.8,-417.6 365.8,-382 75.55,-382"/>
<polygon fill="none" stroke="black" points="75.55,-382 75.55,-417.6 365.8,-417.6 365.8,-382 75.55,-382"/>
<text text-anchor="start" x="102.69" y="-395.4" font-family="Arial Bold" font-size="18.00">public.products</text>
<text text-anchor="start" x="214.17" y="-395.4" font-family="Arial" font-size="14.00">    </text>
<text text-anchor="start" x="245.29" y="-395.4" font-family="Arial" font-size="14.00" fill="#666666">[BASE TABLE]</text>
<polygon fill="none" stroke="black" points="75.55,-351.2 75.55,-382 365.8,-382 365.8,-351.2 75.55,-351.2"/>
<text text-anchor="start" x="82.55" y="-363.4" font-family="Arial" font-size="14.00">id </text>
<text text-anchor="start" x="97.34" y="-363.4" font-family="Arial" font-size="14.00" fill="#666666">[bigint]</text>
<polygon fill="none" stroke="black" points="75.55,-320.4 75.55,-351.2 365.8,-351.2 365.8,-320.4 75.55,-320.4"/>
<text text-anchor="start" x="82.55" y="-332.6" font-family="Arial" font-size="14.00">category_id </text>
<text text-anchor="start" x="158.82" y="-332.6" font-family="Arial" font-size="14.00" fill="#666666">[bigint]</text>
<polygon fill="none" stroke="black" points="75.55,-289.6 75.55,-320.4 365.8,-320.4 365.8,-289.6 75.55,-289.6"/>
<text text-anchor="start" x="82.55" y="-301.8" font-family="Arial" font-size="14.00">name </text>
<text text-anchor="start" x="121.46" y="-301.8" font-family="Arial" font-size="14.00" fill="#666666">[varchar(255)]</text>
<polygon fill="none" stroke="black" points="75.55,-258.8 75.55,-289.6 365.8,-289.6 365.8,-258.8 75.55,-258.8"/>
<text text-anchor="start" x="82.55" y="-271" font-family="Arial" font-size="14.00">slug </text>
<text text-anchor="start" x="112.12" y="-271" font-family="Arial" font-size="14.00" fill="#666666">[varchar(255)]</text>
<polygon fill="none" stroke="black" points="75.55,-228 75.55,-258.8 365.8,-258.8 365.8,-228 75.55,-228"/>
<text text-anchor="start" x="82.55" y="-240.2" font-family="Arial" font-size="14.00">description </text>
<text text-anchor="start" x="154.14" y="-240.2" font-family="Arial" font-size="14.00" fill="#666666">[text]</text>
<polygon fill="none" stroke="black" points="75.55,-197.2 75.55,-228 365.8,-228 365.8,-197.2 75.55,-197.2"/>
<text text-anchor="start" x="82.55" y="-209.4" font-family="Arial" font-size="14.00">price </text>
<text text-anchor="start" x="116.78" y="-209.4" font-family="Arial" font-size="14.00" fill="#666666">[numeric(10,2)]</text>
<polygon fill="none" stroke="black" points="75.55,-166.4 75.55,-197.2 365.8,-197.2 365.8,-166.4 75.55,-166.4"/>
<text text-anchor="start" x="82.55" y="-178.6" font-family="Arial" font-size="14.00">sku </text>
<text text-anchor="start" x="108.22" y="-178.6" font-family="Arial" font-size="14.00" fill="#666666">[varchar(255)]</text>
<polygon fill="none" stroke="black" points="75.55,-135.6 75.55,-166.4 365.8,-166.4 365.8,-135.6 75.55,-135.6"/>
<text text-anchor="start" x="82.55" y="-147.8" font-family="Arial" font-size="14.00">is_active </text>
<text text-anchor="start" x="140.91" y="-147.8" font-family="Arial" font-size="14.00" fill="#666666">[boolean]</text>
<polygon fill="none" stroke="black" points="75.55,-104.8 75.55,-135.6 365.8,-135.6 365.8,-104.8 75.55,-104.8"/>
<text text-anchor="start" x="82.55" y="-117" font-family="Arial" font-size="14.00">created_at </text>
<text text-anchor="start" x="152.6" y="-117" font-family="Arial" font-size="14.00" fill="#666666">[timestamp(0) without time zone]</text>
<polygon fill="none" stroke="black" points="75.55,-74 75.55,-104.8 365.8,-104.8 365.8,-74 75.55,-74"/>
<text text-anchor="start" x="82.55" y="-86.2" font-family="Arial" font-size="14.00">updated_at </text>
<text text-anchor="start" x="156.51" y="-86.2" font-family="Arial" font-size="14.00" fill="#666666">[timestamp(0) without time zone]</text>
<polygon fill="none" stroke="black" points="75.55,-43.2 75.55,-74 365.8,-74 365.8,-43.2 75.55,-43.2"/>
<text text-anchor="start" x="82.55" y="-55.4" font-family="Arial" font-size="14.00">deleted_at </text>
<text text-anchor="start" x="151.83" y="-55.4" font-family="Arial" font-size="14.00" fill="#666666">[timestamp(0) without time zone]</text>
</g>
<!-- public.inventory_movements&#45;&gt;public.products -->
<g id="edge1" class="edge">
<title>public.inventory_movements:product_id&#45;&gt;public.products:id</title>
<path fill="none" stroke="black" d="M406.35,-741.17C477.47,-711.53 447.14,-366.6 366.8,-366.6"/>
<polygon fill="black" stroke="black" points="406.29,-741.19 395.6,-738.72 401.06,-742.23 396.81,-743.07 396.81,-743.07 396.81,-743.07 401.06,-742.23 397.36,-747.55 406.29,-741.19"/>
<text text-anchor="start" x="403.15" y="-753.2" font-family="Arial" font-size="10.00">FOREIGN KEY (product_id) REFERENCES products(id) ON DELETE RESTRICT</text>
</g>
</g>
</svg>
