<?xml version="1.0" encoding="UTF-8" standalone="no"?>
<!DOCTYPE svg PUBLIC "-//W3C//DTD SVG 1.1//EN"
 "http://www.w3.org/Graphics/SVG/1.1/DTD/svg11.dtd">
<!-- Generated by graphviz version 12.1.2 (20240928.0832)
 -->
<!-- Title: public.inventory_stocks Pages: 1 -->
<svg width="742pt" height="818pt"
 viewBox="0.00 0.00 741.93 817.60" xmlns="http://www.w3.org/2000/svg" xmlns:xlink="http://www.w3.org/1999/xlink">
<g id="graph0" class="graph" transform="scale(1 1) rotate(0) translate(4 813.6)">
<title>public.inventory_stocks</title>
<polygon fill="white" stroke="none" points="-4,4 -4,-813.6 737.93,-813.6 737.93,4 -4,4"/>
<!-- public.inventory_stocks -->
<g id="node1" class="node">
<title>public.inventory_stocks</title>
<polygon fill="#efefef" stroke="none" points="46.2,-727.8 46.2,-763.4 357.17,-763.4 357.17,-727.8 46.2,-727.8"/>
<polygon fill="none" stroke="black" points="46.2,-727.8 46.2,-763.4 357.17,-763.4 357.17,-727.8 46.2,-727.8"/>
<text text-anchor="start" x="53.2" y="-741.2" font-family="Arial Bold" font-size="18.00">public.inventory_stocks</text>
<text text-anchor="start" x="225.68" y="-741.2" font-family="Arial" font-size="14.00">    </text>
<text text-anchor="start" x="256.79" y="-741.2" font-family="Arial" font-size="14.00" fill="#666666">[BASE TABLE]</text>
<polygon fill="none" stroke="black" points="46.2,-697 46.2,-727.8 357.17,-727.8 357.17,-697 46.2,-697"/>
<text text-anchor="start" x="53.2" y="-709.2" font-family="Arial" font-size="14.00">id </text>
<text text-anchor="start" x="67.99" y="-709.2" font-family="Arial" font-size="14.00" fill="#666666">[bigint]</text>
<polygon fill="none" stroke="black" points="46.2,-666.2 46.2,-697 357.17,-697 357.17,-666.2 46.2,-666.2"/>
<text text-anchor="start" x="53.2" y="-678.4" font-family="Arial" font-size="14.00">product_id </text>
<text text-anchor="start" x="122.47" y="-678.4" font-family="Arial" font-size="14.00" fill="#666666">[bigint]</text>
<polygon fill="none" stroke="black" points="46.2,-635.4 46.2,-666.2 357.17,-666.2 357.17,-635.4 46.2,-635.4"/>
<text text-anchor="start" x="53.2" y="-647.6" font-family="Arial" font-size="14.00">quantity </text>
<text text-anchor="start" x="106.12" y="-647.6" font-family="Arial" font-size="14.00" fill="#666666">[integer]</text>
<polygon fill="none" stroke="black" points="46.2,-604.6 46.2,-635.4 357.17,-635.4 357.17,-604.6 46.2,-604.6"/>
<text text-anchor="start" x="53.2" y="-616.8" font-family="Arial" font-size="14.00">reserved </text>
<text text-anchor="start" x="111.56" y="-616.8" font-family="Arial" font-size="14.00" fill="#666666">[integer]</text>
<polygon fill="none" stroke="black" points="46.2,-573.8 46.2,-604.6 357.17,-604.6 357.17,-573.8 46.2,-573.8"/>
<text text-anchor="start" x="53.2" y="-586" font-family="Arial" font-size="14.00">created_at </text>
<text text-anchor="start" x="123.25" y="-586" font-family="Arial" font-size="14.00" fill="#666666">[timestamp(0) without time zone]</text>
<polygon fill="none" stroke="black" points="46.2,-543 46.2,-573.8 357.17,-573.8 357.17,-543 46.2,-543"/>
<text text-anchor="start" x="53.2" y="-555.2" font-family="Arial" font-size="14.00">updated_at </text>
<text text-anchor="start" x="127.16" y="-555.2" font-family="Arial" font-size="14.00" fill="#666666">[timestamp(0) without time zone]</text>
<polygon fill="none" stroke="black" stroke-width="3" points="44.7,-541.5 44.7,-764.9 358.67,-764.9 358.67,-541.5 44.7,-541.5"/>
</g>
<!-- public.products -->
<g id="node2" class="node">
<title>public.products</title>
<polygon fill="#efefef" stroke="none" points="56.56,-382 56.56,-417.6 346.81,-417.6 346.81,-382 56.56,-382"/>
<polygon fill="none" stroke="black" points="56.56,-382 56.56,-417.6 346.81,-417.6 346.81,-382 56.56,-382"/>
<text text-anchor="start" x="83.7" y="-395.4" font-family="Arial Bold" font-size="18.00">public.products</text>
<text text-anchor="start" x="195.18" y="-395.4" font-family="Arial" font-size="14.00">    </text>
<text text-anchor="start" x="226.3" y="-395.4" font-family="Arial" font-size="14.00" fill="#666666">[BASE TABLE]</text>
<polygon fill="none" stroke="black" points="56.56,-351.2 56.56,-382 346.81,-382 346.81,-351.2 56.56,-351.2"/>
<text text-anchor="start" x="63.56" y="-363.4" font-family="Arial" font-size="14.00">id </text>
<text text-anchor="start" x="78.34" y="-363.4" font-family="Arial" font-size="14.00" fill="#666666">[bigint]</text>
<polygon fill="none" stroke="black" points="56.56,-320.4 56.56,-351.2 346.81,-351.2 346.81,-320.4 56.56,-320.4"/>
<text text-anchor="start" x="63.56" y="-332.6" font-family="Arial" font-size="14.00">category_id </text>
<text text-anchor="start" x="139.82" y="-332.6" font-family="Arial" font-size="14.00" fill="#666666">[bigint]</text>
<polygon fill="none" stroke="black" points="56.56,-289.6 56.56,-320.4 346.81,-320.4 346.81,-289.6 56.56,-289.6"/>
<text text-anchor="start" x="63.56" y="-301.8" font-family="Arial" font-size="14.00">name </text>
<text text-anchor="start" x="102.47" y="-301.8" font-family="Arial" font-size="14.00" fill="#666666">[varchar(255)]</text>
<polygon fill="none" stroke="black" points="56.56,-258.8 56.56,-289.6 346.81,-289.6 346.81,-258.8 56.56,-258.8"/>
<text text-anchor="start" x="63.56" y="-271" font-family="Arial" font-size="14.00">slug </text>
<text text-anchor="start" x="93.13" y="-271" font-family="Arial" font-size="14.00" fill="#666666">[varchar(255)]</text>
<polygon fill="none" stroke="black" points="56.56,-228 56.56,-258.8 346.81,-258.8 346.81,-228 56.56,-228"/>
<text text-anchor="start" x="63.56" y="-240.2" font-family="Arial" font-size="14.00">description </text>
<text text-anchor="start" x="135.15" y="-240.2" font-family="Arial" font-size="14.00" fill="#666666">[text]</text>
<polygon fill="none" stroke="black" points="56.56,-197.2 56.56,-228 346.81,-228 346.81,-197.2 56.56,-197.2"/>
<text text-anchor="start" x="63.56" y="-209.4" font-family="Arial" font-size="14.00">price </text>
<text text-anchor="start" x="97.79" y="-209.4" font-family="Arial" font-size="14.00" fill="#666666">[numeric(10,2)]</text>
<polygon fill="none" stroke="black" points="56.56,-166.4 56.56,-197.2 346.81,-197.2 346.81,-166.4 56.56,-166.4"/>
<text text-anchor="start" x="63.56" y="-178.6" font-family="Arial" font-size="14.00">sku </text>
<text text-anchor="start" x="89.23" y="-178.6" font-family="Arial" font-size="14.00" fill="#666666">[varchar(255)]</text>
<polygon fill="none" stroke="black" points="56.56,-135.6 56.56,-166.4 346.81,-166.4 346.81,-135.6 56.56,-135.6"/>
<text text-anchor="start" x="63.56" y="-147.8" font-family="Arial" font-size="14.00">is_active </text>
<text text-anchor="start" x="121.91" y="-147.8" font-family="Arial" font-size="14.00" fill="#666666">[boolean]</text>
<polygon fill="none" stroke="black" points="56.56,-104.8 56.56,-135.6 346.81,-135.6 346.81,-104.8 56.56,-104.8"/>
<text text-anchor="start" x="63.56" y="-117" font-family="Arial" font-size="14.00">created_at </text>
<text text-anchor="start" x="133.6" y="-117" font-family="Arial" font-size="14.00" fill="#666666">[timestamp(0) without time zone]</text>
<polygon fill="none" stroke="black" points="56.56,-74 56.56,-104.8 346.81,-104.8 346.81,-74 56.56,-74"/>
<text text-anchor="start" x="63.56" y="-86.2" font-family="Arial" font-size="14.00">updated_at </text>
<text text-anchor="start" x="137.51" y="-86.2" font-family="Arial" font-size="14.00" fill="#666666">[timestamp(0) without time zone]</text>
<polygon fill="none" stroke="black" points="56.56,-43.2 56.56,-74 346.81,-74 346.81,-43.2 56.56,-43.2"/>
<text text-anchor="start" x="63.56" y="-55.4" font-family="Arial" font-size="14.00">deleted_at </text>
<text text-anchor="start" x="132.84" y="-55.4" font-family="Arial" font-size="14.00" fill="#666666">[timestamp(0) without time zone]</text>
</g>
<!-- public.inventory_stocks&#45;&gt;public.products -->
<g id="edge1" class="edge">
<title>public.inventory_stocks:product_id&#45;&gt;public.products:id</title>
<path fill="none" stroke="black" d="M368.22,-679.25C427,-650.42 414.29,-366.6 347.81,-366.6"/>
<polygon fill="black" stroke="black" points="368.23,-679.24 357.47,-677.14 363.03,-680.46 358.82,-681.45 358.82,-681.45 358.82,-681.45 363.03,-680.46 359.52,-685.91 368.23,-679.24"/>
<text text-anchor="start" x="365.17" y="-691.6" font-family="Arial" font-size="10.00">FOREIGN KEY (product_id) REFERENCES products(id) ON DELETE CASCADE</text>
</g>
</g>
</svg>
