<?xml version="1.0" encoding="UTF-8" standalone="no"?>
<!DOCTYPE svg PUBLIC "-//W3C//DTD SVG 1.1//EN"
 "http://www.w3.org/Graphics/SVG/1.1/DTD/svg11.dtd">
<!-- Generated by graphviz version 12.1.2 (20240928.0832)
 -->
<!-- Title: public.order_items Pages: 1 -->
<svg width="1033pt" height="848pt"
 viewBox="0.00 0.00 1033.42 848.40" xmlns="http://www.w3.org/2000/svg" xmlns:xlink="http://www.w3.org/1999/xlink">
<g id="graph0" class="graph" transform="scale(1 1) rotate(0) translate(4 844.4)">
<title>public.order_items</title>
<polygon fill="white" stroke="none" points="-4,4 -4,-844.4 1029.42,-844.4 1029.42,4 -4,4"/>
<!-- public.order_items -->
<g id="node1" class="node">
<title>public.order_items</title>
<polygon fill="#efefef" stroke="none" points="356.74,-758.6 356.74,-794.2 647,-794.2 647,-758.6 356.74,-758.6"/>
<polygon fill="none" stroke="black" points="356.74,-758.6 356.74,-794.2 647,-794.2 647,-758.6 356.74,-758.6"/>
<text text-anchor="start" x="371.89" y="-772" font-family="Arial Bold" font-size="18.00">public.order_items</text>
<text text-anchor="start" x="507.36" y="-772" font-family="Arial" font-size="14.00">    </text>
<text text-anchor="start" x="538.48" y="-772" font-family="Arial" font-size="14.00" fill="#666666">[BASE TABLE]</text>
<polygon fill="none" stroke="black" points="356.74,-727.8 356.74,-758.6 647,-758.6 647,-727.8 356.74,-727.8"/>
<text text-anchor="start" x="363.74" y="-740" font-family="Arial" font-size="14.00">id </text>
<text text-anchor="start" x="378.53" y="-740" font-family="Arial" font-size="14.00" fill="#666666">[bigint]</text>
<polygon fill="none" stroke="black" points="356.74,-697 356.74,-727.8 647,-727.8 647,-697 356.74,-697"/>
<text text-anchor="start" x="363.74" y="-709.2" font-family="Arial" font-size="14.00">order_id </text>
<text text-anchor="start" x="419" y="-709.2" font-family="Arial" font-size="14.00" fill="#666666">[bigint]</text>
<polygon fill="none" stroke="black" points="356.74,-666.2 356.74,-697 647,-697 647,-666.2 356.74,-666.2"/>
<text text-anchor="start" x="363.74" y="-678.4" font-family="Arial" font-size="14.00">product_id </text>
<text text-anchor="start" x="433.01" y="-678.4" font-family="Arial" font-size="14.00" fill="#666666">[bigint]</text>
<polygon fill="none" stroke="black" points="356.74,-635.4 356.74,-666.2 647,-666.2 647,-635.4 356.74,-635.4"/>
<text text-anchor="start" x="363.74" y="-647.6" font-family="Arial" font-size="14.00">quantity </text>
<text text-anchor="start" x="416.67" y="-647.6" font-family="Arial" font-size="14.00" fill="#666666">[integer]</text>
<polygon fill="none" stroke="black" points="356.74,-604.6 356.74,-635.4 647,-635.4 647,-604.6 356.74,-604.6"/>
<text text-anchor="start" x="363.74" y="-616.8" font-family="Arial" font-size="14.00">unit_price </text>
<text text-anchor="start" x="428.34" y="-616.8" font-family="Arial" font-size="14.00" fill="#666666">[numeric(10,2)]</text>
<polygon fill="none" stroke="black" points="356.74,-573.8 356.74,-604.6 647,-604.6 647,-573.8 356.74,-573.8"/>
<text text-anchor="start" x="363.74" y="-586" font-family="Arial" font-size="14.00">created_at </text>
<text text-anchor="start" x="433.79" y="-586" font-family="Arial" font-size="14.00" fill="#666666">[timestamp(0) without time zone]</text>
<polygon fill="none" stroke="black" points="356.74,-543 356.74,-573.8 647,-573.8 647,-543 356.74,-543"/>
<text text-anchor="start" x="363.74" y="-555.2" font-family="Arial" font-size="14.00">updated_at </text>
<text text-anchor="start" x="437.7" y="-555.2" font-family="Arial" font-size="14.00" fill="#666666">[timestamp(0) without time zone]</text>
<polygon fill="none" stroke="black" stroke-width="3" points="355.24,-541.5 355.24,-795.7 648.5,-795.7 648.5,-541.5 355.24,-541.5"/>
</g>
<!-- public.orders -->
<g id="node2" class="node">
<title>public.orders</title>
<polygon fill="#efefef" stroke="none" points="159.74,-320.4 159.74,-356 450,-356 450,-320.4 159.74,-320.4"/>
<polygon fill="none" stroke="black" points="159.74,-320.4 159.74,-356 450,-356 450,-320.4 159.74,-320.4"/>
<text text-anchor="start" x="195.39" y="-333.8" font-family="Arial Bold" font-size="18.00">public.orders</text>
<text text-anchor="start" x="289.86" y="-333.8" font-family="Arial" font-size="14.00">    </text>
<text text-anchor="start" x="320.98" y="-333.8" font-family="Arial" font-size="14.00" fill="#666666">[BASE TABLE]</text>
<polygon fill="none" stroke="black" points="159.74,-289.6 159.74,-320.4 450,-320.4 450,-289.6 159.74,-289.6"/>
<text text-anchor="start" x="166.74" y="-301.8" font-family="Arial" font-size="14.00">id </text>
<text text-anchor="start" x="181.53" y="-301.8" font-family="Arial" font-size="14.00" fill="#666666">[bigint]</text>
<polygon fill="none" stroke="black" points="159.74,-258.8 159.74,-289.6 450,-289.6 450,-258.8 159.74,-258.8"/>
<text text-anchor="start" x="166.74" y="-271" font-family="Arial" font-size="14.00">user_id </text>
<text text-anchor="start" x="216.55" y="-271" font-family="Arial" font-size="14.00" fill="#666666">[bigint]</text>
<polygon fill="none" stroke="black" points="159.74,-228 159.74,-258.8 450,-258.8 450,-228 159.74,-228"/>
<text text-anchor="start" x="166.74" y="-240.2" font-family="Arial" font-size="14.00">status </text>
<text text-anchor="start" x="207.98" y="-240.2" font-family="Arial" font-size="14.00" fill="#666666">[varchar(255)]</text>
<polygon fill="none" stroke="black" points="159.74,-197.2 159.74,-228 450,-228 450,-197.2 159.74,-197.2"/>
<text text-anchor="start" x="166.74" y="-209.4" font-family="Arial" font-size="14.00">total </text>
<text text-anchor="start" x="197.09" y="-209.4" font-family="Arial" font-size="14.00" fill="#666666">[numeric(10,2)]</text>
<polygon fill="none" stroke="black" points="159.74,-166.4 159.74,-197.2 450,-197.2 450,-166.4 159.74,-166.4"/>
<text text-anchor="start" x="166.74" y="-178.6" font-family="Arial" font-size="14.00">shipping_address </text>
<text text-anchor="start" x="280.38" y="-178.6" font-family="Arial" font-size="14.00" fill="#666666">[json]</text>
<polygon fill="none" stroke="black" points="159.74,-135.6 159.74,-166.4 450,-166.4 450,-135.6 159.74,-135.6"/>
<text text-anchor="start" x="166.74" y="-147.8" font-family="Arial" font-size="14.00">created_at </text>
<text text-anchor="start" x="236.79" y="-147.8" font-family="Arial" font-size="14.00" fill="#666666">[timestamp(0) without time zone]</text>
<polygon fill="none" stroke="black" points="159.74,-104.8 159.74,-135.6 450,-135.6 450,-104.8 159.74,-104.8"/>
<text text-anchor="start" x="166.74" y="-117" font-family="Arial" font-size="14.00">updated_at </text>
<text text-anchor="start" x="240.7" y="-117" font-family="Arial" font-size="14.00" fill="#666666">[timestamp(0) without time zone]</text>
</g>
<!-- public.order_items&#45;&gt;public.orders -->
<g id="edge1" class="edge">
<title>public.order_items:order_id&#45;&gt;public.orders:id</title>
<path fill="none" stroke="black" d="M345.71,-711.88C264.41,-703.05 322.21,-582.36 356.74,-496.8 379.2,-441.17 427.38,-454.77 450,-399.2 465.78,-360.42 492.87,-305 451,-305"/>
<polygon fill="black" stroke="black" points="345.42,-711.87 355.18,-716.88 350.75,-712.14 355.08,-712.37 355.08,-712.37 355.08,-712.37 350.75,-712.14 355.64,-707.89 345.42,-711.87"/>
<text text-anchor="start" x="7" y="-722.4" font-family="Arial" font-size="10.00">FOREIGN KEY (order_id) REFERENCES orders(id) ON DELETE CASCADE</text>
</g>
<!-- public.products -->
<g id="node3" class="node">
<title>public.products</title>
<polygon fill="#efefef" stroke="none" points="554.74,-382 554.74,-417.6 845,-417.6 845,-382 554.74,-382"/>
<polygon fill="none" stroke="black" points="554.74,-382 554.74,-417.6 845,-417.6 845,-382 554.74,-382"/>
<text text-anchor="start" x="581.89" y="-395.4" font-family="Arial Bold" font-size="18.00">public.products</text>
<text text-anchor="start" x="693.37" y="-395.4" font-family="Arial" font-size="14.00">    </text>
<text text-anchor="start" x="724.48" y="-395.4" font-family="Arial" font-size="14.00" fill="#666666">[BASE TABLE]</text>
<polygon fill="none" stroke="black" points="554.74,-351.2 554.74,-382 845,-382 845,-351.2 554.74,-351.2"/>
<text text-anchor="start" x="561.74" y="-363.4" font-family="Arial" font-size="14.00">id </text>
<text text-anchor="start" x="576.53" y="-363.4" font-family="Arial" font-size="14.00" fill="#666666">[bigint]</text>
<polygon fill="none" stroke="black" points="554.74,-320.4 554.74,-351.2 845,-351.2 845,-320.4 554.74,-320.4"/>
<text text-anchor="start" x="561.74" y="-332.6" font-family="Arial" font-size="14.00">category_id </text>
<text text-anchor="start" x="638.01" y="-332.6" font-family="Arial" font-size="14.00" fill="#666666">[bigint]</text>
<polygon fill="none" stroke="black" points="554.74,-289.6 554.74,-320.4 845,-320.4 845,-289.6 554.74,-289.6"/>
<text text-anchor="start" x="561.74" y="-301.8" font-family="Arial" font-size="14.00">name </text>
<text text-anchor="start" x="600.65" y="-301.8" font-family="Arial" font-size="14.00" fill="#666666">[varchar(255)]</text>
<polygon fill="none" stroke="black" points="554.74,-258.8 554.74,-289.6 845,-289.6 845,-258.8 554.74,-258.8"/>
<text text-anchor="start" x="561.74" y="-271" font-family="Arial" font-size="14.00">slug </text>
<text text-anchor="start" x="591.32" y="-271" font-family="Arial" font-size="14.00" fill="#666666">[varchar(255)]</text>
<polygon fill="none" stroke="black" points="554.74,-228 554.74,-258.8 845,-258.8 845,-228 554.74,-228"/>
<text text-anchor="start" x="561.74" y="-240.2" font-family="Arial" font-size="14.00">description </text>
<text text-anchor="start" x="633.34" y="-240.2" font-family="Arial" font-size="14.00" fill="#666666">[text]</text>
<polygon fill="none" stroke="black" points="554.74,-197.2 554.74,-228 845,-228 845,-197.2 554.74,-197.2"/>
<text text-anchor="start" x="561.74" y="-209.4" font-family="Arial" font-size="14.00">price </text>
<text text-anchor="start" x="595.98" y="-209.4" font-family="Arial" font-size="14.00" fill="#666666">[numeric(10,2)]</text>
<polygon fill="none" stroke="black" points="554.74,-166.4 554.74,-197.2 845,-197.2 845,-166.4 554.74,-166.4"/>
<text text-anchor="start" x="561.74" y="-178.6" font-family="Arial" font-size="14.00">sku </text>
<text text-anchor="start" x="587.42" y="-178.6" font-family="Arial" font-size="14.00" fill="#666666">[varchar(255)]</text>
<polygon fill="none" stroke="black" points="554.74,-135.6 554.74,-166.4 845,-166.4 845,-135.6 554.74,-135.6"/>
<text text-anchor="start" x="561.74" y="-147.8" font-family="Arial" font-size="14.00">is_active </text>
<text text-anchor="start" x="620.1" y="-147.8" font-family="Arial" font-size="14.00" fill="#666666">[boolean]</text>
<polygon fill="none" stroke="black" points="554.74,-104.8 554.74,-135.6 845,-135.6 845,-104.8 554.74,-104.8"/>
<text text-anchor="start" x="561.74" y="-117" font-family="Arial" font-size="14.00">created_at </text>
<text text-anchor="start" x="631.79" y="-117" font-family="Arial" font-size="14.00" fill="#666666">[timestamp(0) without time zone]</text>
<polygon fill="none" stroke="black" points="554.74,-74 554.74,-104.8 845,-104.8 845,-74 554.74,-74"/>
<text text-anchor="start" x="561.74" y="-86.2" font-family="Arial" font-size="14.00">updated_at </text>
<text text-anchor="start" x="635.7" y="-86.2" font-family="Arial" font-size="14.00" fill="#666666">[timestamp(0) without time zone]</text>
<polygon fill="none" stroke="black" points="554.74,-43.2 554.74,-74 845,-74 845,-43.2 554.74,-43.2"/>
<text text-anchor="start" x="561.74" y="-55.4" font-family="Arial" font-size="14.00">deleted_at </text>
<text text-anchor="start" x="631.03" y="-55.4" font-family="Arial" font-size="14.00" fill="#666666">[timestamp(0) without time zone]</text>
</g>
<!-- public.order_items&#45;&gt;public.products -->
<g id="edge2" class="edge">
<title>public.order_items:product_id&#45;&gt;public.products:id</title>
<path fill="none" stroke="black" d="M658.36,-680.91C726.82,-671.18 691.42,-561.45 647,-496.8 622.07,-460.53 579.76,-497.01 554.74,-460.8 530.94,-426.35 511.87,-366.6 553.74,-366.6"/>
<polygon fill="black" stroke="black" points="658.31,-680.91 648.03,-677.09 652.99,-681.27 648.66,-681.56 648.66,-681.56 648.66,-681.56 652.99,-681.27 648.63,-686.07 658.31,-680.91"/>
<text text-anchor="start" x="655" y="-691.6" font-family="Arial" font-size="10.00">FOREIGN KEY (product_id) REFERENCES products(id) ON DELETE RESTRICT</text>
</g>
</g>
</svg>
