<?xml version="1.0" encoding="UTF-8" standalone="no"?>
<!DOCTYPE svg PUBLIC "-//W3C//DTD SVG 1.1//EN"
 "http://www.w3.org/Graphics/SVG/1.1/DTD/svg11.dtd">
<!-- Generated by graphviz version 12.1.2 (20240928.0832)
 -->
<!-- Title: public.users Pages: 1 -->
<svg width="713pt" height="818pt"
 viewBox="0.00 0.00 712.95 817.60" xmlns="http://www.w3.org/2000/svg" xmlns:xlink="http://www.w3.org/1999/xlink">
<g id="graph0" class="graph" transform="scale(1 1) rotate(0) translate(4 813.6)">
<title>public.users</title>
<polygon fill="white" stroke="none" points="-4,4 -4,-813.6 708.95,-813.6 708.95,4 -4,4"/>
<!-- public.users -->
<g id="node1" class="node">
<title>public.users</title>
<polygon fill="#efefef" stroke="none" points="46.2,-354.2 46.2,-389.8 372.22,-389.8 372.22,-354.2 46.2,-354.2"/>
<polygon fill="none" stroke="black" points="46.2,-354.2 46.2,-389.8 372.22,-389.8 372.22,-354.2 46.2,-354.2"/>
<text text-anchor="start" x="103.72" y="-367.6" font-family="Arial Bold" font-size="18.00">public.users</text>
<text text-anchor="start" x="190.21" y="-367.6" font-family="Arial" font-size="14.00">    </text>
<text text-anchor="start" x="221.32" y="-367.6" font-family="Arial" font-size="14.00" fill="#666666">[BASE TABLE]</text>
<polygon fill="none" stroke="black" points="46.2,-323.4 46.2,-354.2 372.22,-354.2 372.22,-323.4 46.2,-323.4"/>
<text text-anchor="start" x="53.2" y="-335.6" font-family="Arial" font-size="14.00">id </text>
<text text-anchor="start" x="67.99" y="-335.6" font-family="Arial" font-size="14.00" fill="#666666">[bigint]</text>
<polygon fill="none" stroke="black" points="46.2,-292.6 46.2,-323.4 372.22,-323.4 372.22,-292.6 46.2,-292.6"/>
<text text-anchor="start" x="53.2" y="-304.8" font-family="Arial" font-size="14.00">name </text>
<text text-anchor="start" x="92.11" y="-304.8" font-family="Arial" font-size="14.00" fill="#666666">[varchar(255)]</text>
<polygon fill="none" stroke="black" points="46.2,-261.8 46.2,-292.6 372.22,-292.6 372.22,-261.8 46.2,-261.8"/>
<text text-anchor="start" x="53.2" y="-274" font-family="Arial" font-size="14.00">email </text>
<text text-anchor="start" x="90.54" y="-274" font-family="Arial" font-size="14.00" fill="#666666">[varchar(255)]</text>
<polygon fill="none" stroke="black" points="46.2,-231 46.2,-261.8 372.22,-261.8 372.22,-231 46.2,-231"/>
<text text-anchor="start" x="53.2" y="-243.2" font-family="Arial" font-size="14.00">email_verified_at </text>
<text text-anchor="start" x="162.92" y="-243.2" font-family="Arial" font-size="14.00" fill="#666666">[timestamp(0) without time zone]</text>
<polygon fill="none" stroke="black" points="46.2,-200.2 46.2,-231 372.22,-231 372.22,-200.2 46.2,-200.2"/>
<text text-anchor="start" x="53.2" y="-212.4" font-family="Arial" font-size="14.00">password </text>
<text text-anchor="start" x="117.01" y="-212.4" font-family="Arial" font-size="14.00" fill="#666666">[varchar(255)]</text>
<polygon fill="none" stroke="black" points="46.2,-169.4 46.2,-200.2 372.22,-200.2 372.22,-169.4 46.2,-169.4"/>
<text text-anchor="start" x="53.2" y="-181.6" font-family="Arial" font-size="14.00">role </text>
<text text-anchor="start" x="80.43" y="-181.6" font-family="Arial" font-size="14.00" fill="#666666">[varchar(255)]</text>
<polygon fill="none" stroke="black" points="46.2,-138.6 46.2,-169.4 372.22,-169.4 372.22,-138.6 46.2,-138.6"/>
<text text-anchor="start" x="53.2" y="-150.8" font-family="Arial" font-size="14.00">remember_token </text>
<text text-anchor="start" x="162.92" y="-150.8" font-family="Arial" font-size="14.00" fill="#666666">[varchar(100)]</text>
<polygon fill="none" stroke="black" points="46.2,-107.8 46.2,-138.6 372.22,-138.6 372.22,-107.8 46.2,-107.8"/>
<text text-anchor="start" x="53.2" y="-120" font-family="Arial" font-size="14.00">created_at </text>
<text text-anchor="start" x="123.25" y="-120" font-family="Arial" font-size="14.00" fill="#666666">[timestamp(0) without time zone]</text>
<polygon fill="none" stroke="black" points="46.2,-77 46.2,-107.8 372.22,-107.8 372.22,-77 46.2,-77"/>
<text text-anchor="start" x="53.2" y="-89.2" font-family="Arial" font-size="14.00">updated_at </text>
<text text-anchor="start" x="127.16" y="-89.2" font-family="Arial" font-size="14.00" fill="#666666">[timestamp(0) without time zone]</text>
<polygon fill="none" stroke="black" points="46.2,-46.2 46.2,-77 372.22,-77 372.22,-46.2 46.2,-46.2"/>
<text text-anchor="start" x="53.2" y="-58.4" font-family="Arial" font-size="14.00">deleted_at </text>
<text text-anchor="start" x="122.48" y="-58.4" font-family="Arial" font-size="14.00" fill="#666666">[timestamp(0) without time zone]</text>
<polygon fill="none" stroke="black" stroke-width="3" points="44.7,-44.7 44.7,-391.3 373.72,-391.3 373.72,-44.7 44.7,-44.7"/>
</g>
<!-- public.orders -->
<g id="node2" class="node">
<title>public.orders</title>
<polygon fill="#efefef" stroke="none" points="64.08,-730.8 64.08,-766.4 354.34,-766.4 354.34,-730.8 64.08,-730.8"/>
<polygon fill="none" stroke="black" points="64.08,-730.8 64.08,-766.4 354.34,-766.4 354.34,-730.8 64.08,-730.8"/>
<text text-anchor="start" x="99.73" y="-744.2" font-family="Arial Bold" font-size="18.00">public.orders</text>
<text text-anchor="start" x="194.2" y="-744.2" font-family="Arial" font-size="14.00">    </text>
<text text-anchor="start" x="225.32" y="-744.2" font-family="Arial" font-size="14.00" fill="#666666">[BASE TABLE]</text>
<polygon fill="none" stroke="black" points="64.08,-700 64.08,-730.8 354.34,-730.8 354.34,-700 64.08,-700"/>
<text text-anchor="start" x="71.08" y="-712.2" font-family="Arial" font-size="14.00">id </text>
<text text-anchor="start" x="85.87" y="-712.2" font-family="Arial" font-size="14.00" fill="#666666">[bigint]</text>
<polygon fill="none" stroke="black" points="64.08,-669.2 64.08,-700 354.34,-700 354.34,-669.2 64.08,-669.2"/>
<text text-anchor="start" x="71.08" y="-681.4" font-family="Arial" font-size="14.00">user_id </text>
<text text-anchor="start" x="120.89" y="-681.4" font-family="Arial" font-size="14.00" fill="#666666">[bigint]</text>
<polygon fill="none" stroke="black" points="64.08,-638.4 64.08,-669.2 354.34,-669.2 354.34,-638.4 64.08,-638.4"/>
<text text-anchor="start" x="71.08" y="-650.6" font-family="Arial" font-size="14.00">status </text>
<text text-anchor="start" x="112.32" y="-650.6" font-family="Arial" font-size="14.00" fill="#666666">[varchar(255)]</text>
<polygon fill="none" stroke="black" points="64.08,-607.6 64.08,-638.4 354.34,-638.4 354.34,-607.6 64.08,-607.6"/>
<text text-anchor="start" x="71.08" y="-619.8" font-family="Arial" font-size="14.00">total </text>
<text text-anchor="start" x="101.43" y="-619.8" font-family="Arial" font-size="14.00" fill="#666666">[numeric(10,2)]</text>
<polygon fill="none" stroke="black" points="64.08,-576.8 64.08,-607.6 354.34,-607.6 354.34,-576.8 64.08,-576.8"/>
<text text-anchor="start" x="71.08" y="-589" font-family="Arial" font-size="14.00">shipping_address </text>
<text text-anchor="start" x="184.72" y="-589" font-family="Arial" font-size="14.00" fill="#666666">[json]</text>
<polygon fill="none" stroke="black" points="64.08,-546 64.08,-576.8 354.34,-576.8 354.34,-546 64.08,-546"/>
<text text-anchor="start" x="71.08" y="-558.2" font-family="Arial" font-size="14.00">created_at </text>
<text text-anchor="start" x="141.13" y="-558.2" font-family="Arial" font-size="14.00" fill="#666666">[timestamp(0) without time zone]</text>
<polygon fill="none" stroke="black" points="64.08,-515.2 64.08,-546 354.34,-546 354.34,-515.2 64.08,-515.2"/>
<text text-anchor="start" x="71.08" y="-527.4" font-family="Arial" font-size="14.00">updated_at </text>
<text text-anchor="start" x="145.04" y="-527.4" font-family="Arial" font-size="14.00" fill="#666666">[timestamp(0) without time zone]</text>
</g>
<!-- public.orders&#45;&gt;public.users -->
<g id="edge1" class="edge">
<title>public.orders:user_id&#45;&gt;public.users:id</title>
<path fill="none" stroke="black" d="M365.35,-682.57C433.7,-654.23 446.71,-338.8 373.22,-338.8"/>
<polygon fill="black" stroke="black" points="365.46,-682.55 354.77,-680.12 360.24,-683.61 355.99,-684.47 355.99,-684.47 355.99,-684.47 360.24,-683.61 356.56,-688.94 365.46,-682.55"/>
<text text-anchor="start" x="362.34" y="-694.6" font-family="Arial" font-size="10.00">FOREIGN KEY (user_id) REFERENCES users(id) ON DELETE RESTRICT</text>
</g>
</g>
</svg>
