<?xml version="1.0" encoding="UTF-8" standalone="no"?>
<!DOCTYPE svg PUBLIC "-//W3C//DTD SVG 1.1//EN"
 "http://www.w3.org/Graphics/SVG/1.1/DTD/svg11.dtd">
<!-- Generated by graphviz version 12.1.2 (20240928.0832)
 -->
<!-- Title: public.products Pages: 1 -->
<svg width="1296pt" height="1222pt"
 viewBox="0.00 0.00 1295.97 1222.00" xmlns="http://www.w3.org/2000/svg" xmlns:xlink="http://www.w3.org/1999/xlink">
<g id="graph0" class="graph" transform="scale(1 1) rotate(0) translate(4 1218)">
<title>public.products</title>
<polygon fill="white" stroke="none" points="-4,4 -4,-1218 1291.97,-1218 1291.97,4 -4,4"/>
<!-- public.products -->
<g id="node1" class="node">
<title>public.products</title>
<polygon fill="#efefef" stroke="none" points="491.16,-727.8 491.16,-763.4 781.42,-763.4 781.42,-727.8 491.16,-727.8"/>
<polygon fill="none" stroke="black" points="491.16,-727.8 491.16,-763.4 781.42,-763.4 781.42,-727.8 491.16,-727.8"/>
<text text-anchor="start" x="518.31" y="-741.2" font-family="Arial Bold" font-size="18.00">public.products</text>
<text text-anchor="start" x="629.79" y="-741.2" font-family="Arial" font-size="14.00">    </text>
<text text-anchor="start" x="660.9" y="-741.2" font-family="Arial" font-size="14.00" fill="#666666">[BASE TABLE]</text>
<polygon fill="none" stroke="black" points="491.16,-697 491.16,-727.8 781.42,-727.8 781.42,-697 491.16,-697"/>
<text text-anchor="start" x="498.16" y="-709.2" font-family="Arial" font-size="14.00">id </text>
<text text-anchor="start" x="512.95" y="-709.2" font-family="Arial" font-size="14.00" fill="#666666">[bigint]</text>
<polygon fill="none" stroke="black" points="491.16,-666.2 491.16,-697 781.42,-697 781.42,-666.2 491.16,-666.2"/>
<text text-anchor="start" x="498.16" y="-678.4" font-family="Arial" font-size="14.00">category_id </text>
<text text-anchor="start" x="574.43" y="-678.4" font-family="Arial" font-size="14.00" fill="#666666">[bigint]</text>
<polygon fill="none" stroke="black" points="491.16,-635.4 491.16,-666.2 781.42,-666.2 781.42,-635.4 491.16,-635.4"/>
<text text-anchor="start" x="498.16" y="-647.6" font-family="Arial" font-size="14.00">name </text>
<text text-anchor="start" x="537.07" y="-647.6" font-family="Arial" font-size="14.00" fill="#666666">[varchar(255)]</text>
<polygon fill="none" stroke="black" points="491.16,-604.6 491.16,-635.4 781.42,-635.4 781.42,-604.6 491.16,-604.6"/>
<text text-anchor="start" x="498.16" y="-616.8" font-family="Arial" font-size="14.00">slug </text>
<text text-anchor="start" x="527.74" y="-616.8" font-family="Arial" font-size="14.00" fill="#666666">[varchar(255)]</text>
<polygon fill="none" stroke="black" points="491.16,-573.8 491.16,-604.6 781.42,-604.6 781.42,-573.8 491.16,-573.8"/>
<text text-anchor="start" x="498.16" y="-586" font-family="Arial" font-size="14.00">description </text>
<text text-anchor="start" x="569.76" y="-586" font-family="Arial" font-size="14.00" fill="#666666">[text]</text>
<polygon fill="none" stroke="black" points="491.16,-543 491.16,-573.8 781.42,-573.8 781.42,-543 491.16,-543"/>
<text text-anchor="start" x="498.16" y="-555.2" font-family="Arial" font-size="14.00">price </text>
<text text-anchor="start" x="532.4" y="-555.2" font-family="Arial" font-size="14.00" fill="#666666">[numeric(10,2)]</text>
<polygon fill="none" stroke="black" points="491.16,-512.2 491.16,-543 781.42,-543 781.42,-512.2 491.16,-512.2"/>
<text text-anchor="start" x="498.16" y="-524.4" font-family="Arial" font-size="14.00">sku </text>
<text text-anchor="start" x="523.84" y="-524.4" font-family="Arial" font-size="14.00" fill="#666666">[varchar(255)]</text>
<polygon fill="none" stroke="black" points="491.16,-481.4 491.16,-512.2 781.42,-512.2 781.42,-481.4 491.16,-481.4"/>
<text text-anchor="start" x="498.16" y="-493.6" font-family="Arial" font-size="14.00">is_active </text>
<text text-anchor="start" x="556.52" y="-493.6" font-family="Arial" font-size="14.00" fill="#666666">[boolean]</text>
<polygon fill="none" stroke="black" points="491.16,-450.6 491.16,-481.4 781.42,-481.4 781.42,-450.6 491.16,-450.6"/>
<text text-anchor="start" x="498.16" y="-462.8" font-family="Arial" font-size="14.00">created_at </text>
<text text-anchor="start" x="568.21" y="-462.8" font-family="Arial" font-size="14.00" fill="#666666">[timestamp(0) without time zone]</text>
<polygon fill="none" stroke="black" points="491.16,-419.8 491.16,-450.6 781.42,-450.6 781.42,-419.8 491.16,-419.8"/>
<text text-anchor="start" x="498.16" y="-432" font-family="Arial" font-size="14.00">updated_at </text>
<text text-anchor="start" x="572.12" y="-432" font-family="Arial" font-size="14.00" fill="#666666">[timestamp(0) without time zone]</text>
<polygon fill="none" stroke="black" points="491.16,-389 491.16,-419.8 781.42,-419.8 781.42,-389 491.16,-389"/>
<text text-anchor="start" x="498.16" y="-401.2" font-family="Arial" font-size="14.00">deleted_at </text>
<text text-anchor="start" x="567.45" y="-401.2" font-family="Arial" font-size="14.00" fill="#666666">[timestamp(0) without time zone]</text>
<polygon fill="none" stroke="black" stroke-width="3" points="489.66,-387.5 489.66,-764.9 782.92,-764.9 782.92,-387.5 489.66,-387.5"/>
</g>
<!-- public.categories -->
<g id="node5" class="node">
<title>public.categories</title>
<polygon fill="#efefef" stroke="none" points="491.16,-228 491.16,-263.6 781.42,-263.6 781.42,-228 491.16,-228"/>
<polygon fill="none" stroke="black" points="491.16,-228 491.16,-263.6 781.42,-263.6 781.42,-228 491.16,-228"/>
<text text-anchor="start" x="512.82" y="-241.4" font-family="Arial Bold" font-size="18.00">public.categories</text>
<text text-anchor="start" x="635.27" y="-241.4" font-family="Arial" font-size="14.00">    </text>
<text text-anchor="start" x="666.39" y="-241.4" font-family="Arial" font-size="14.00" fill="#666666">[BASE TABLE]</text>
<polygon fill="none" stroke="black" points="491.16,-197.2 491.16,-228 781.42,-228 781.42,-197.2 491.16,-197.2"/>
<text text-anchor="start" x="498.16" y="-209.4" font-family="Arial" font-size="14.00">id </text>
<text text-anchor="start" x="512.95" y="-209.4" font-family="Arial" font-size="14.00" fill="#666666">[bigint]</text>
<polygon fill="none" stroke="black" points="491.16,-166.4 491.16,-197.2 781.42,-197.2 781.42,-166.4 491.16,-166.4"/>
<text text-anchor="start" x="498.16" y="-178.6" font-family="Arial" font-size="14.00">name </text>
<text text-anchor="start" x="537.07" y="-178.6" font-family="Arial" font-size="14.00" fill="#666666">[varchar(255)]</text>
<polygon fill="none" stroke="black" points="491.16,-135.6 491.16,-166.4 781.42,-166.4 781.42,-135.6 491.16,-135.6"/>
<text text-anchor="start" x="498.16" y="-147.8" font-family="Arial" font-size="14.00">slug </text>
<text text-anchor="start" x="527.74" y="-147.8" font-family="Arial" font-size="14.00" fill="#666666">[varchar(255)]</text>
<polygon fill="none" stroke="black" points="491.16,-104.8 491.16,-135.6 781.42,-135.6 781.42,-104.8 491.16,-104.8"/>
<text text-anchor="start" x="498.16" y="-117" font-family="Arial" font-size="14.00">parent_id </text>
<text text-anchor="start" x="560.43" y="-117" font-family="Arial" font-size="14.00" fill="#666666">[bigint]</text>
<polygon fill="none" stroke="black" points="491.16,-74 491.16,-104.8 781.42,-104.8 781.42,-74 491.16,-74"/>
<text text-anchor="start" x="498.16" y="-86.2" font-family="Arial" font-size="14.00">created_at </text>
<text text-anchor="start" x="568.21" y="-86.2" font-family="Arial" font-size="14.00" fill="#666666">[timestamp(0) without time zone]</text>
<polygon fill="none" stroke="black" points="491.16,-43.2 491.16,-74 781.42,-74 781.42,-43.2 491.16,-43.2"/>
<text text-anchor="start" x="498.16" y="-55.4" font-family="Arial" font-size="14.00">updated_at </text>
<text text-anchor="start" x="572.12" y="-55.4" font-family="Arial" font-size="14.00" fill="#666666">[timestamp(0) without time zone]</text>
</g>
<!-- public.products&#45;&gt;public.categories -->
<g id="edge4" class="edge">
<title>public.products:category_id&#45;&gt;public.categories:id</title>
<path fill="none" stroke="black" d="M792.63,-681.22C990.8,-666.16 987.4,-212.6 782.42,-212.6"/>
<polygon fill="black" stroke="black" points="792.75,-681.21 782.58,-677.09 787.41,-681.41 783.09,-681.57 783.09,-681.57 783.09,-681.57 787.41,-681.41 782.92,-686.08 792.75,-681.21"/>
<text text-anchor="start" x="789.42" y="-691.6" font-family="Arial" font-size="10.00">FOREIGN KEY (category_id) REFERENCES categories(id) ON DELETE RESTRICT</text>
</g>
<!-- public.order_items -->
<g id="node2" class="node">
<title>public.order_items</title>
<polygon fill="#efefef" stroke="none" points="86.16,-1119.8 86.16,-1155.4 376.42,-1155.4 376.42,-1119.8 86.16,-1119.8"/>
<polygon fill="none" stroke="black" points="86.16,-1119.8 86.16,-1155.4 376.42,-1155.4 376.42,-1119.8 86.16,-1119.8"/>
<text text-anchor="start" x="101.31" y="-1133.2" font-family="Arial Bold" font-size="18.00">public.order_items</text>
<text text-anchor="start" x="236.78" y="-1133.2" font-family="Arial" font-size="14.00">    </text>
<text text-anchor="start" x="267.9" y="-1133.2" font-family="Arial" font-size="14.00" fill="#666666">[BASE TABLE]</text>
<polygon fill="none" stroke="black" points="86.16,-1089 86.16,-1119.8 376.42,-1119.8 376.42,-1089 86.16,-1089"/>
<text text-anchor="start" x="93.16" y="-1101.2" font-family="Arial" font-size="14.00">id </text>
<text text-anchor="start" x="107.95" y="-1101.2" font-family="Arial" font-size="14.00" fill="#666666">[bigint]</text>
<polygon fill="none" stroke="black" points="86.16,-1058.2 86.16,-1089 376.42,-1089 376.42,-1058.2 86.16,-1058.2"/>
<text text-anchor="start" x="93.16" y="-1070.4" font-family="Arial" font-size="14.00">order_id </text>
<text text-anchor="start" x="148.42" y="-1070.4" font-family="Arial" font-size="14.00" fill="#666666">[bigint]</text>
<polygon fill="none" stroke="black" points="86.16,-1027.4 86.16,-1058.2 376.42,-1058.2 376.42,-1027.4 86.16,-1027.4"/>
<text text-anchor="start" x="93.16" y="-1039.6" font-family="Arial" font-size="14.00">product_id </text>
<text text-anchor="start" x="162.43" y="-1039.6" font-family="Arial" font-size="14.00" fill="#666666">[bigint]</text>
<polygon fill="none" stroke="black" points="86.16,-996.6 86.16,-1027.4 376.42,-1027.4 376.42,-996.6 86.16,-996.6"/>
<text text-anchor="start" x="93.16" y="-1008.8" font-family="Arial" font-size="14.00">quantity </text>
<text text-anchor="start" x="146.09" y="-1008.8" font-family="Arial" font-size="14.00" fill="#666666">[integer]</text>
<polygon fill="none" stroke="black" points="86.16,-965.8 86.16,-996.6 376.42,-996.6 376.42,-965.8 86.16,-965.8"/>
<text text-anchor="start" x="93.16" y="-978" font-family="Arial" font-size="14.00">unit_price </text>
<text text-anchor="start" x="157.76" y="-978" font-family="Arial" font-size="14.00" fill="#666666">[numeric(10,2)]</text>
<polygon fill="none" stroke="black" points="86.16,-935 86.16,-965.8 376.42,-965.8 376.42,-935 86.16,-935"/>
<text text-anchor="start" x="93.16" y="-947.2" font-family="Arial" font-size="14.00">created_at </text>
<text text-anchor="start" x="163.21" y="-947.2" font-family="Arial" font-size="14.00" fill="#666666">[timestamp(0) without time zone]</text>
<polygon fill="none" stroke="black" points="86.16,-904.2 86.16,-935 376.42,-935 376.42,-904.2 86.16,-904.2"/>
<text text-anchor="start" x="93.16" y="-916.4" font-family="Arial" font-size="14.00">updated_at </text>
<text text-anchor="start" x="167.12" y="-916.4" font-family="Arial" font-size="14.00" fill="#666666">[timestamp(0) without time zone]</text>
</g>
<!-- public.order_items&#45;&gt;public.products -->
<g id="edge1" class="edge">
<title>public.order_items:product_id&#45;&gt;public.products:id</title>
<path fill="none" stroke="black" d="M387.76,-1042.24C462.35,-1033.66 399.04,-927.33 428.29,-845.6 450.28,-784.14 424.89,-712.4 490.16,-712.4"/>
<polygon fill="black" stroke="black" points="387.74,-1042.25 377.51,-1038.29 382.41,-1042.53 378.09,-1042.76 378.09,-1042.76 378.09,-1042.76 382.41,-1042.53 377.99,-1047.28 387.74,-1042.25"/>
<text text-anchor="start" x="7" y="-1052.8" font-family="Arial" font-size="10.00">FOREIGN KEY (product_id) REFERENCES products(id) ON DELETE RESTRICT</text>
</g>
<!-- public.inventory_stocks -->
<g id="node3" class="node">
<title>public.inventory_stocks</title>
<polygon fill="#efefef" stroke="none" points="480.81,-1104.4 480.81,-1140 791.77,-1140 791.77,-1104.4 480.81,-1104.4"/>
<polygon fill="none" stroke="black" points="480.81,-1104.4 480.81,-1140 791.77,-1140 791.77,-1104.4 480.81,-1104.4"/>
<text text-anchor="start" x="487.81" y="-1117.8" font-family="Arial Bold" font-size="18.00">public.inventory_stocks</text>
<text text-anchor="start" x="660.28" y="-1117.8" font-family="Arial" font-size="14.00">    </text>
<text text-anchor="start" x="691.4" y="-1117.8" font-family="Arial" font-size="14.00" fill="#666666">[BASE TABLE]</text>
<polygon fill="none" stroke="black" points="480.81,-1073.6 480.81,-1104.4 791.77,-1104.4 791.77,-1073.6 480.81,-1073.6"/>
<text text-anchor="start" x="487.81" y="-1085.8" font-family="Arial" font-size="14.00">id </text>
<text text-anchor="start" x="502.59" y="-1085.8" font-family="Arial" font-size="14.00" fill="#666666">[bigint]</text>
<polygon fill="none" stroke="black" points="480.81,-1042.8 480.81,-1073.6 791.77,-1073.6 791.77,-1042.8 480.81,-1042.8"/>
<text text-anchor="start" x="487.81" y="-1055" font-family="Arial" font-size="14.00">product_id </text>
<text text-anchor="start" x="557.08" y="-1055" font-family="Arial" font-size="14.00" fill="#666666">[bigint]</text>
<polygon fill="none" stroke="black" points="480.81,-1012 480.81,-1042.8 791.77,-1042.8 791.77,-1012 480.81,-1012"/>
<text text-anchor="start" x="487.81" y="-1024.2" font-family="Arial" font-size="14.00">quantity </text>
<text text-anchor="start" x="540.73" y="-1024.2" font-family="Arial" font-size="14.00" fill="#666666">[integer]</text>
<polygon fill="none" stroke="black" points="480.81,-981.2 480.81,-1012 791.77,-1012 791.77,-981.2 480.81,-981.2"/>
<text text-anchor="start" x="487.81" y="-993.4" font-family="Arial" font-size="14.00">reserved </text>
<text text-anchor="start" x="546.17" y="-993.4" font-family="Arial" font-size="14.00" fill="#666666">[integer]</text>
<polygon fill="none" stroke="black" points="480.81,-950.4 480.81,-981.2 791.77,-981.2 791.77,-950.4 480.81,-950.4"/>
<text text-anchor="start" x="487.81" y="-962.6" font-family="Arial" font-size="14.00">created_at </text>
<text text-anchor="start" x="557.86" y="-962.6" font-family="Arial" font-size="14.00" fill="#666666">[timestamp(0) without time zone]</text>
<polygon fill="none" stroke="black" points="480.81,-919.6 480.81,-950.4 791.77,-950.4 791.77,-919.6 480.81,-919.6"/>
<text text-anchor="start" x="487.81" y="-931.8" font-family="Arial" font-size="14.00">updated_at </text>
<text text-anchor="start" x="561.77" y="-931.8" font-family="Arial" font-size="14.00" fill="#666666">[timestamp(0) without time zone]</text>
</g>
<!-- public.inventory_stocks&#45;&gt;public.products -->
<g id="edge2" class="edge">
<title>public.inventory_stocks:product_id&#45;&gt;public.products:id</title>
<path fill="none" stroke="black" d="M801.08,-1051.9C829.37,-1005.04 817.78,-712.4 782.42,-712.4"/>
<polygon fill="black" stroke="black" points="801.01,-1051.96 790.32,-1054.41 796.76,-1055.18 793.31,-1057.8 793.31,-1057.8 793.31,-1057.8 796.76,-1055.18 795.76,-1061.58 801.01,-1051.96"/>
<text text-anchor="start" x="424.01" y="-1068.2" font-family="Arial" font-size="10.00">FOREIGN KEY (product_id) REFERENCES products(id) ON DELETE CASCADE</text>
</g>
<!-- public.inventory_movements -->
<g id="node4" class="node">
<title>public.inventory_movements</title>
<polygon fill="#efefef" stroke="none" points="895.81,-1135.2 895.81,-1170.8 1244.77,-1170.8 1244.77,-1135.2 895.81,-1135.2"/>
<polygon fill="none" stroke="black" points="895.81,-1135.2 895.81,-1170.8 1244.77,-1170.8 1244.77,-1135.2 895.81,-1135.2"/>
<text text-anchor="start" x="902.81" y="-1148.6" font-family="Arial Bold" font-size="18.00">public.inventory_movements</text>
<text text-anchor="start" x="1113.28" y="-1148.6" font-family="Arial" font-size="14.00">    </text>
<text text-anchor="start" x="1144.4" y="-1148.6" font-family="Arial" font-size="14.00" fill="#666666">[BASE TABLE]</text>
<polygon fill="none" stroke="black" points="895.81,-1104.4 895.81,-1135.2 1244.77,-1135.2 1244.77,-1104.4 895.81,-1104.4"/>
<text text-anchor="start" x="902.81" y="-1116.6" font-family="Arial" font-size="14.00">id </text>
<text text-anchor="start" x="917.6" y="-1116.6" font-family="Arial" font-size="14.00" fill="#666666">[bigint]</text>
<polygon fill="none" stroke="black" points="895.81,-1073.6 895.81,-1104.4 1244.77,-1104.4 1244.77,-1073.6 895.81,-1073.6"/>
<text text-anchor="start" x="902.81" y="-1085.8" font-family="Arial" font-size="14.00">product_id </text>
<text text-anchor="start" x="972.08" y="-1085.8" font-family="Arial" font-size="14.00" fill="#666666">[bigint]</text>
<polygon fill="none" stroke="black" points="895.81,-1042.8 895.81,-1073.6 1244.77,-1073.6 1244.77,-1042.8 895.81,-1042.8"/>
<text text-anchor="start" x="902.81" y="-1055" font-family="Arial" font-size="14.00">type </text>
<text text-anchor="start" x="933.17" y="-1055" font-family="Arial" font-size="14.00" fill="#666666">[varchar(255)]</text>
<polygon fill="none" stroke="black" points="895.81,-1012 895.81,-1042.8 1244.77,-1042.8 1244.77,-1012 895.81,-1012"/>
<text text-anchor="start" x="902.81" y="-1024.2" font-family="Arial" font-size="14.00">quantity </text>
<text text-anchor="start" x="955.74" y="-1024.2" font-family="Arial" font-size="14.00" fill="#666666">[integer]</text>
<polygon fill="none" stroke="black" points="895.81,-981.2 895.81,-1012 1244.77,-1012 1244.77,-981.2 895.81,-981.2"/>
<text text-anchor="start" x="902.81" y="-993.4" font-family="Arial" font-size="14.00">reference_type </text>
<text text-anchor="start" x="1000.1" y="-993.4" font-family="Arial" font-size="14.00" fill="#666666">[varchar(255)]</text>
<polygon fill="none" stroke="black" points="895.81,-950.4 895.81,-981.2 1244.77,-981.2 1244.77,-950.4 895.81,-950.4"/>
<text text-anchor="start" x="902.81" y="-962.6" font-family="Arial" font-size="14.00">reference_id </text>
<text text-anchor="start" x="984.53" y="-962.6" font-family="Arial" font-size="14.00" fill="#666666">[bigint]</text>
<polygon fill="none" stroke="black" points="895.81,-919.6 895.81,-950.4 1244.77,-950.4 1244.77,-919.6 895.81,-919.6"/>
<text text-anchor="start" x="902.81" y="-931.8" font-family="Arial" font-size="14.00">created_at </text>
<text text-anchor="start" x="972.86" y="-931.8" font-family="Arial" font-size="14.00" fill="#666666">[timestamp(0) without time zone]</text>
<polygon fill="none" stroke="black" points="895.81,-888.8 895.81,-919.6 1244.77,-919.6 1244.77,-888.8 895.81,-888.8"/>
<text text-anchor="start" x="902.81" y="-901" font-family="Arial" font-size="14.00">updated_at </text>
<text text-anchor="start" x="976.77" y="-901" font-family="Arial" font-size="14.00" fill="#666666">[timestamp(0) without time zone]</text>
</g>
<!-- public.inventory_movements&#45;&gt;public.products -->
<g id="edge3" class="edge">
<title>public.inventory_movements:product_id&#45;&gt;public.products:id</title>
<path fill="none" stroke="black" d="M884.8,-1086.57C842.33,-1064.25 860.5,-894.56 844.29,-845.6 823.77,-783.63 847.69,-712.4 782.42,-712.4"/>
<polygon fill="black" stroke="black" points="884.77,-1086.56 893.43,-1093.29 889.96,-1087.82 894.16,-1088.84 894.16,-1088.84 894.16,-1088.84 889.96,-1087.82 895.55,-1084.55 884.77,-1086.56"/>
<text text-anchor="start" x="524.4" y="-1099" font-family="Arial" font-size="10.00">FOREIGN KEY (product_id) REFERENCES products(id) ON DELETE RESTRICT</text>
</g>
</g>
</svg>
