<?xml version="1.0" encoding="UTF-8" standalone="no"?>
<!DOCTYPE svg PUBLIC "-//W3C//DTD SVG 1.1//EN"
 "http://www.w3.org/Graphics/SVG/1.1/DTD/svg11.dtd">
<!-- Generated by graphviz version 12.1.2 (20240928.0832)
 -->
<!-- Title: ecommerce Pages: 1 -->
<svg width="2126pt" height="1370pt"
 viewBox="0.00 0.00 2126.43 1370.00" xmlns="http://www.w3.org/2000/svg" xmlns:xlink="http://www.w3.org/1999/xlink">
<g id="graph0" class="graph" transform="scale(1 1) rotate(0) translate(4 1366)">
<title>ecommerce</title>
<polygon fill="white" stroke="none" points="-4,4 -4,-1366 2122.43,-1366 2122.43,4 -4,4"/>
<!-- public.migrations -->
<g id="node1" class="node">
<title>public.migrations</title>
<polygon fill="#efefef" stroke="none" points="43.2,-1190.8 43.2,-1226.4 308.17,-1226.4 308.17,-1190.8 43.2,-1190.8"/>
<polygon fill="none" stroke="black" points="43.2,-1190.8 43.2,-1226.4 308.17,-1226.4 308.17,-1190.8 43.2,-1190.8"/>
<text text-anchor="start" x="50.2" y="-1204.2" font-family="Arial Bold" font-size="18.00">public.migrations</text>
<text text-anchor="start" x="176.68" y="-1204.2" font-family="Arial" font-size="14.00">    </text>
<text text-anchor="start" x="207.8" y="-1204.2" font-family="Arial" font-size="14.00" fill="#666666">[BASE TABLE]</text>
<polygon fill="none" stroke="black" points="43.2,-1160 43.2,-1190.8 308.17,-1190.8 308.17,-1160 43.2,-1160"/>
<text text-anchor="start" x="50.2" y="-1172.2" font-family="Arial" font-size="14.00">id </text>
<text text-anchor="start" x="64.99" y="-1172.2" font-family="Arial" font-size="14.00" fill="#666666">[integer]</text>
<polygon fill="none" stroke="black" points="43.2,-1129.2 43.2,-1160 308.17,-1160 308.17,-1129.2 43.2,-1129.2"/>
<text text-anchor="start" x="50.2" y="-1141.4" font-family="Arial" font-size="14.00">migration </text>
<text text-anchor="start" x="111.67" y="-1141.4" font-family="Arial" font-size="14.00" fill="#666666">[varchar(255)]</text>
<polygon fill="none" stroke="black" points="43.2,-1098.4 43.2,-1129.2 308.17,-1129.2 308.17,-1098.4 43.2,-1098.4"/>
<text text-anchor="start" x="50.2" y="-1110.6" font-family="Arial" font-size="14.00">batch </text>
<text text-anchor="start" x="88.34" y="-1110.6" font-family="Arial" font-size="14.00" fill="#666666">[integer]</text>
</g>
<!-- public.users -->
<g id="node2" class="node">
<title>public.users</title>
<polygon fill="#efefef" stroke="none" points="1459.68,-351.2 1459.68,-386.8 1785.7,-386.8 1785.7,-351.2 1459.68,-351.2"/>
<polygon fill="none" stroke="black" points="1459.68,-351.2 1459.68,-386.8 1785.7,-386.8 1785.7,-351.2 1459.68,-351.2"/>
<text text-anchor="start" x="1517.2" y="-364.6" font-family="Arial Bold" font-size="18.00">public.users</text>
<text text-anchor="start" x="1603.68" y="-364.6" font-family="Arial" font-size="14.00">    </text>
<text text-anchor="start" x="1634.8" y="-364.6" font-family="Arial" font-size="14.00" fill="#666666">[BASE TABLE]</text>
<polygon fill="none" stroke="black" points="1459.68,-320.4 1459.68,-351.2 1785.7,-351.2 1785.7,-320.4 1459.68,-320.4"/>
<text text-anchor="start" x="1466.68" y="-332.6" font-family="Arial" font-size="14.00">id </text>
<text text-anchor="start" x="1481.46" y="-332.6" font-family="Arial" font-size="14.00" fill="#666666">[bigint]</text>
<polygon fill="none" stroke="black" points="1459.68,-289.6 1459.68,-320.4 1785.7,-320.4 1785.7,-289.6 1459.68,-289.6"/>
<text text-anchor="start" x="1466.68" y="-301.8" font-family="Arial" font-size="14.00">name </text>
<text text-anchor="start" x="1505.59" y="-301.8" font-family="Arial" font-size="14.00" fill="#666666">[varchar(255)]</text>
<polygon fill="none" stroke="black" points="1459.68,-258.8 1459.68,-289.6 1785.7,-289.6 1785.7,-258.8 1459.68,-258.8"/>
<text text-anchor="start" x="1466.68" y="-271" font-family="Arial" font-size="14.00">email </text>
<text text-anchor="start" x="1504.02" y="-271" font-family="Arial" font-size="14.00" fill="#666666">[varchar(255)]</text>
<polygon fill="none" stroke="black" points="1459.68,-228 1459.68,-258.8 1785.7,-258.8 1785.7,-228 1459.68,-228"/>
<text text-anchor="start" x="1466.68" y="-240.2" font-family="Arial" font-size="14.00">email_verified_at </text>
<text text-anchor="start" x="1576.4" y="-240.2" font-family="Arial" font-size="14.00" fill="#666666">[timestamp(0) without time zone]</text>
<polygon fill="none" stroke="black" points="1459.68,-197.2 1459.68,-228 1785.7,-228 1785.7,-197.2 1459.68,-197.2"/>
<text text-anchor="start" x="1466.68" y="-209.4" font-family="Arial" font-size="14.00">password </text>
<text text-anchor="start" x="1530.48" y="-209.4" font-family="Arial" font-size="14.00" fill="#666666">[varchar(255)]</text>
<polygon fill="none" stroke="black" points="1459.68,-166.4 1459.68,-197.2 1785.7,-197.2 1785.7,-166.4 1459.68,-166.4"/>
<text text-anchor="start" x="1466.68" y="-178.6" font-family="Arial" font-size="14.00">role </text>
<text text-anchor="start" x="1493.91" y="-178.6" font-family="Arial" font-size="14.00" fill="#666666">[varchar(255)]</text>
<polygon fill="none" stroke="black" points="1459.68,-135.6 1459.68,-166.4 1785.7,-166.4 1785.7,-135.6 1459.68,-135.6"/>
<text text-anchor="start" x="1466.68" y="-147.8" font-family="Arial" font-size="14.00">remember_token </text>
<text text-anchor="start" x="1576.39" y="-147.8" font-family="Arial" font-size="14.00" fill="#666666">[varchar(100)]</text>
<polygon fill="none" stroke="black" points="1459.68,-104.8 1459.68,-135.6 1785.7,-135.6 1785.7,-104.8 1459.68,-104.8"/>
<text text-anchor="start" x="1466.68" y="-117" font-family="Arial" font-size="14.00">created_at </text>
<text text-anchor="start" x="1536.72" y="-117" font-family="Arial" font-size="14.00" fill="#666666">[timestamp(0) without time zone]</text>
<polygon fill="none" stroke="black" points="1459.68,-74 1459.68,-104.8 1785.7,-104.8 1785.7,-74 1459.68,-74"/>
<text text-anchor="start" x="1466.68" y="-86.2" font-family="Arial" font-size="14.00">updated_at </text>
<text text-anchor="start" x="1540.63" y="-86.2" font-family="Arial" font-size="14.00" fill="#666666">[timestamp(0) without time zone]</text>
<polygon fill="none" stroke="black" points="1459.68,-43.2 1459.68,-74 1785.7,-74 1785.7,-43.2 1459.68,-43.2"/>
<text text-anchor="start" x="1466.68" y="-55.4" font-family="Arial" font-size="14.00">deleted_at </text>
<text text-anchor="start" x="1535.96" y="-55.4" font-family="Arial" font-size="14.00" fill="#666666">[timestamp(0) without time zone]</text>
</g>
<!-- public.categories -->
<g id="node3" class="node">
<title>public.categories</title>
<polygon fill="#efefef" stroke="none" points="856.56,-289.6 856.56,-325.2 1146.81,-325.2 1146.81,-289.6 856.56,-289.6"/>
<polygon fill="none" stroke="black" points="856.56,-289.6 856.56,-325.2 1146.81,-325.2 1146.81,-289.6 856.56,-289.6"/>
<text text-anchor="start" x="878.22" y="-303" font-family="Arial Bold" font-size="18.00">public.categories</text>
<text text-anchor="start" x="1000.67" y="-303" font-family="Arial" font-size="14.00">    </text>
<text text-anchor="start" x="1031.78" y="-303" font-family="Arial" font-size="14.00" fill="#666666">[BASE TABLE]</text>
<polygon fill="none" stroke="black" points="856.56,-258.8 856.56,-289.6 1146.81,-289.6 1146.81,-258.8 856.56,-258.8"/>
<text text-anchor="start" x="863.56" y="-271" font-family="Arial" font-size="14.00">id </text>
<text text-anchor="start" x="878.35" y="-271" font-family="Arial" font-size="14.00" fill="#666666">[bigint]</text>
<polygon fill="none" stroke="black" points="856.56,-228 856.56,-258.8 1146.81,-258.8 1146.81,-228 856.56,-228"/>
<text text-anchor="start" x="863.56" y="-240.2" font-family="Arial" font-size="14.00">name </text>
<text text-anchor="start" x="902.47" y="-240.2" font-family="Arial" font-size="14.00" fill="#666666">[varchar(255)]</text>
<polygon fill="none" stroke="black" points="856.56,-197.2 856.56,-228 1146.81,-228 1146.81,-197.2 856.56,-197.2"/>
<text text-anchor="start" x="863.56" y="-209.4" font-family="Arial" font-size="14.00">slug </text>
<text text-anchor="start" x="893.13" y="-209.4" font-family="Arial" font-size="14.00" fill="#666666">[varchar(255)]</text>
<polygon fill="none" stroke="black" points="856.56,-166.4 856.56,-197.2 1146.81,-197.2 1146.81,-166.4 856.56,-166.4"/>
<text text-anchor="start" x="863.56" y="-178.6" font-family="Arial" font-size="14.00">parent_id </text>
<text text-anchor="start" x="925.83" y="-178.6" font-family="Arial" font-size="14.00" fill="#666666">[bigint]</text>
<polygon fill="none" stroke="black" points="856.56,-135.6 856.56,-166.4 1146.81,-166.4 1146.81,-135.6 856.56,-135.6"/>
<text text-anchor="start" x="863.56" y="-147.8" font-family="Arial" font-size="14.00">created_at </text>
<text text-anchor="start" x="933.61" y="-147.8" font-family="Arial" font-size="14.00" fill="#666666">[timestamp(0) without time zone]</text>
<polygon fill="none" stroke="black" points="856.56,-104.8 856.56,-135.6 1146.81,-135.6 1146.81,-104.8 856.56,-104.8"/>
<text text-anchor="start" x="863.56" y="-117" font-family="Arial" font-size="14.00">updated_at </text>
<text text-anchor="start" x="937.52" y="-117" font-family="Arial" font-size="14.00" fill="#666666">[timestamp(0) without time zone]</text>
</g>
<!-- public.categories&#45;&gt;public.categories -->
<g id="edge1" class="edge">
<title>public.categories:parent_id&#45;&gt;public.categories:id</title>
<path fill="none" stroke="black" d="M1003.22,-207.4C1010.65,-347.96 1010.14,-609.1 1001.69,-609.1 993.03,-609.1 992.7,-420.77 1000.7,-289.51"/>
<polygon fill="black" stroke="black" points="1003.22,-207.4 1007.16,-197.17 1002.93,-202.07 1002.69,-197.75 1002.69,-197.75 1002.69,-197.75 1002.93,-202.07 998.18,-197.66 1003.22,-207.4"/>
<text text-anchor="start" x="1009.65" y="-207.08" font-family="Arial" font-size="10.00">FOREIGN KEY (parent_id) REFERENCES categories(id) ON DELETE SET NULL</text>
</g>
<!-- public.products -->
<g id="node4" class="node">
<title>public.products</title>
<polygon fill="#efefef" stroke="none" points="856.56,-848 856.56,-883.6 1146.81,-883.6 1146.81,-848 856.56,-848"/>
<polygon fill="none" stroke="black" points="856.56,-848 856.56,-883.6 1146.81,-883.6 1146.81,-848 856.56,-848"/>
<text text-anchor="start" x="883.7" y="-861.4" font-family="Arial Bold" font-size="18.00">public.products</text>
<text text-anchor="start" x="995.18" y="-861.4" font-family="Arial" font-size="14.00">    </text>
<text text-anchor="start" x="1026.3" y="-861.4" font-family="Arial" font-size="14.00" fill="#666666">[BASE TABLE]</text>
<polygon fill="none" stroke="black" points="856.56,-817.2 856.56,-848 1146.81,-848 1146.81,-817.2 856.56,-817.2"/>
<text text-anchor="start" x="863.56" y="-829.4" font-family="Arial" font-size="14.00">id </text>
<text text-anchor="start" x="878.35" y="-829.4" font-family="Arial" font-size="14.00" fill="#666666">[bigint]</text>
<polygon fill="none" stroke="black" points="856.56,-786.4 856.56,-817.2 1146.81,-817.2 1146.81,-786.4 856.56,-786.4"/>
<text text-anchor="start" x="863.56" y="-798.6" font-family="Arial" font-size="14.00">category_id </text>
<text text-anchor="start" x="939.83" y="-798.6" font-family="Arial" font-size="14.00" fill="#666666">[bigint]</text>
<polygon fill="none" stroke="black" points="856.56,-755.6 856.56,-786.4 1146.81,-786.4 1146.81,-755.6 856.56,-755.6"/>
<text text-anchor="start" x="863.56" y="-767.8" font-family="Arial" font-size="14.00">name </text>
<text text-anchor="start" x="902.47" y="-767.8" font-family="Arial" font-size="14.00" fill="#666666">[varchar(255)]</text>
<polygon fill="none" stroke="black" points="856.56,-724.8 856.56,-755.6 1146.81,-755.6 1146.81,-724.8 856.56,-724.8"/>
<text text-anchor="start" x="863.56" y="-737" font-family="Arial" font-size="14.00">slug </text>
<text text-anchor="start" x="893.13" y="-737" font-family="Arial" font-size="14.00" fill="#666666">[varchar(255)]</text>
<polygon fill="none" stroke="black" points="856.56,-694 856.56,-724.8 1146.81,-724.8 1146.81,-694 856.56,-694"/>
<text text-anchor="start" x="863.56" y="-706.2" font-family="Arial" font-size="14.00">description </text>
<text text-anchor="start" x="935.15" y="-706.2" font-family="Arial" font-size="14.00" fill="#666666">[text]</text>
<polygon fill="none" stroke="black" points="856.56,-663.2 856.56,-694 1146.81,-694 1146.81,-663.2 856.56,-663.2"/>
<text text-anchor="start" x="863.56" y="-675.4" font-family="Arial" font-size="14.00">price </text>
<text text-anchor="start" x="897.79" y="-675.4" font-family="Arial" font-size="14.00" fill="#666666">[numeric(10,2)]</text>
<polygon fill="none" stroke="black" points="856.56,-632.4 856.56,-663.2 1146.81,-663.2 1146.81,-632.4 856.56,-632.4"/>
<text text-anchor="start" x="863.56" y="-644.6" font-family="Arial" font-size="14.00">sku </text>
<text text-anchor="start" x="889.24" y="-644.6" font-family="Arial" font-size="14.00" fill="#666666">[varchar(255)]</text>
<polygon fill="none" stroke="black" points="856.56,-601.6 856.56,-632.4 1146.81,-632.4 1146.81,-601.6 856.56,-601.6"/>
<text text-anchor="start" x="863.56" y="-613.8" font-family="Arial" font-size="14.00">is_active </text>
<text text-anchor="start" x="921.92" y="-613.8" font-family="Arial" font-size="14.00" fill="#666666">[boolean]</text>
<polygon fill="none" stroke="black" points="856.56,-570.8 856.56,-601.6 1146.81,-601.6 1146.81,-570.8 856.56,-570.8"/>
<text text-anchor="start" x="863.56" y="-583" font-family="Arial" font-size="14.00">created_at </text>
<text text-anchor="start" x="933.61" y="-583" font-family="Arial" font-size="14.00" fill="#666666">[timestamp(0) without time zone]</text>
<polygon fill="none" stroke="black" points="856.56,-540 856.56,-570.8 1146.81,-570.8 1146.81,-540 856.56,-540"/>
<text text-anchor="start" x="863.56" y="-552.2" font-family="Arial" font-size="14.00">updated_at </text>
<text text-anchor="start" x="937.52" y="-552.2" font-family="Arial" font-size="14.00" fill="#666666">[timestamp(0) without time zone]</text>
<polygon fill="none" stroke="black" points="856.56,-509.2 856.56,-540 1146.81,-540 1146.81,-509.2 856.56,-509.2"/>
<text text-anchor="start" x="863.56" y="-521.4" font-family="Arial" font-size="14.00">deleted_at </text>
<text text-anchor="start" x="932.84" y="-521.4" font-family="Arial" font-size="14.00" fill="#666666">[timestamp(0) without time zone]</text>
</g>
<!-- public.products&#45;&gt;public.categories -->
<g id="edge2" class="edge">
<title>public.products:category_id&#45;&gt;public.categories:id</title>
<path fill="none" stroke="black" d="M1157.97,-801.46C1382.25,-786.46 1378.87,-274.2 1147.81,-274.2"/>
<polygon fill="black" stroke="black" points="1158.14,-801.46 1148,-797.29 1152.81,-801.63 1148.48,-801.78 1148.48,-801.78 1148.48,-801.78 1152.81,-801.63 1148.3,-806.29 1158.14,-801.46"/>
<text text-anchor="start" x="1154.81" y="-811.8" font-family="Arial" font-size="10.00">FOREIGN KEY (category_id) REFERENCES categories(id) ON DELETE RESTRICT</text>
</g>
<!-- public.orders -->
<g id="node5" class="node">
<title>public.orders</title>
<polygon fill="#efefef" stroke="none" points="1477.56,-786.4 1477.56,-822 1767.81,-822 1767.81,-786.4 1477.56,-786.4"/>
<polygon fill="none" stroke="black" points="1477.56,-786.4 1477.56,-822 1767.81,-822 1767.81,-786.4 1477.56,-786.4"/>
<text text-anchor="start" x="1513.2" y="-799.8" font-family="Arial Bold" font-size="18.00">public.orders</text>
<text text-anchor="start" x="1607.68" y="-799.8" font-family="Arial" font-size="14.00">    </text>
<text text-anchor="start" x="1638.8" y="-799.8" font-family="Arial" font-size="14.00" fill="#666666">[BASE TABLE]</text>
<polygon fill="none" stroke="black" points="1477.56,-755.6 1477.56,-786.4 1767.81,-786.4 1767.81,-755.6 1477.56,-755.6"/>
<text text-anchor="start" x="1484.56" y="-767.8" font-family="Arial" font-size="14.00">id </text>
<text text-anchor="start" x="1499.35" y="-767.8" font-family="Arial" font-size="14.00" fill="#666666">[bigint]</text>
<polygon fill="none" stroke="black" points="1477.56,-724.8 1477.56,-755.6 1767.81,-755.6 1767.81,-724.8 1477.56,-724.8"/>
<text text-anchor="start" x="1484.56" y="-737" font-family="Arial" font-size="14.00">user_id </text>
<text text-anchor="start" x="1534.37" y="-737" font-family="Arial" font-size="14.00" fill="#666666">[bigint]</text>
<polygon fill="none" stroke="black" points="1477.56,-694 1477.56,-724.8 1767.81,-724.8 1767.81,-694 1477.56,-694"/>
<text text-anchor="start" x="1484.56" y="-706.2" font-family="Arial" font-size="14.00">status </text>
<text text-anchor="start" x="1525.8" y="-706.2" font-family="Arial" font-size="14.00" fill="#666666">[varchar(255)]</text>
<polygon fill="none" stroke="black" points="1477.56,-663.2 1477.56,-694 1767.81,-694 1767.81,-663.2 1477.56,-663.2"/>
<text text-anchor="start" x="1484.56" y="-675.4" font-family="Arial" font-size="14.00">total </text>
<text text-anchor="start" x="1514.91" y="-675.4" font-family="Arial" font-size="14.00" fill="#666666">[numeric(10,2)]</text>
<polygon fill="none" stroke="black" points="1477.56,-632.4 1477.56,-663.2 1767.81,-663.2 1767.81,-632.4 1477.56,-632.4"/>
<text text-anchor="start" x="1484.56" y="-644.6" font-family="Arial" font-size="14.00">shipping_address </text>
<text text-anchor="start" x="1598.19" y="-644.6" font-family="Arial" font-size="14.00" fill="#666666">[json]</text>
<polygon fill="none" stroke="black" points="1477.56,-601.6 1477.56,-632.4 1767.81,-632.4 1767.81,-601.6 1477.56,-601.6"/>
<text text-anchor="start" x="1484.56" y="-613.8" font-family="Arial" font-size="14.00">created_at </text>
<text text-anchor="start" x="1554.61" y="-613.8" font-family="Arial" font-size="14.00" fill="#666666">[timestamp(0) without time zone]</text>
<polygon fill="none" stroke="black" points="1477.56,-570.8 1477.56,-601.6 1767.81,-601.6 1767.81,-570.8 1477.56,-570.8"/>
<text text-anchor="start" x="1484.56" y="-583" font-family="Arial" font-size="14.00">updated_at </text>
<text text-anchor="start" x="1558.52" y="-583" font-family="Arial" font-size="14.00" fill="#666666">[timestamp(0) without time zone]</text>
</g>
<!-- public.orders&#45;&gt;public.users -->
<g id="edge3" class="edge">
<title>public.orders:user_id&#45;&gt;public.users:id</title>
<path fill="none" stroke="black" d="M1779.17,-739.74C1949.35,-724.56 1963.09,-335.8 1786.7,-335.8"/>
<polygon fill="black" stroke="black" points="1779.14,-739.74 1768.95,-735.69 1773.81,-739.98 1769.48,-740.17 1769.48,-740.17 1769.48,-740.17 1773.81,-739.98 1769.35,-744.68 1779.14,-739.74"/>
<text text-anchor="start" x="1775.81" y="-750.2" font-family="Arial" font-size="10.00">FOREIGN KEY (user_id) REFERENCES users(id) ON DELETE RESTRICT</text>
</g>
<!-- public.order_items -->
<g id="node6" class="node">
<title>public.order_items</title>
<polygon fill="#efefef" stroke="none" points="1280.56,-1252.4 1280.56,-1288 1570.81,-1288 1570.81,-1252.4 1280.56,-1252.4"/>
<polygon fill="none" stroke="black" points="1280.56,-1252.4 1280.56,-1288 1570.81,-1288 1570.81,-1252.4 1280.56,-1252.4"/>
<text text-anchor="start" x="1295.71" y="-1265.8" font-family="Arial Bold" font-size="18.00">public.order_items</text>
<text text-anchor="start" x="1431.17" y="-1265.8" font-family="Arial" font-size="14.00">    </text>
<text text-anchor="start" x="1462.29" y="-1265.8" font-family="Arial" font-size="14.00" fill="#666666">[BASE TABLE]</text>
<polygon fill="none" stroke="black" points="1280.56,-1221.6 1280.56,-1252.4 1570.81,-1252.4 1570.81,-1221.6 1280.56,-1221.6"/>
<text text-anchor="start" x="1287.56" y="-1233.8" font-family="Arial" font-size="14.00">id </text>
<text text-anchor="start" x="1302.35" y="-1233.8" font-family="Arial" font-size="14.00" fill="#666666">[bigint]</text>
<polygon fill="none" stroke="black" points="1280.56,-1190.8 1280.56,-1221.6 1570.81,-1221.6 1570.81,-1190.8 1280.56,-1190.8"/>
<text text-anchor="start" x="1287.56" y="-1203" font-family="Arial" font-size="14.00">order_id </text>
<text text-anchor="start" x="1342.81" y="-1203" font-family="Arial" font-size="14.00" fill="#666666">[bigint]</text>
<polygon fill="none" stroke="black" points="1280.56,-1160 1280.56,-1190.8 1570.81,-1190.8 1570.81,-1160 1280.56,-1160"/>
<text text-anchor="start" x="1287.56" y="-1172.2" font-family="Arial" font-size="14.00">product_id </text>
<text text-anchor="start" x="1356.83" y="-1172.2" font-family="Arial" font-size="14.00" fill="#666666">[bigint]</text>
<polygon fill="none" stroke="black" points="1280.56,-1129.2 1280.56,-1160 1570.81,-1160 1570.81,-1129.2 1280.56,-1129.2"/>
<text text-anchor="start" x="1287.56" y="-1141.4" font-family="Arial" font-size="14.00">quantity </text>
<text text-anchor="start" x="1340.48" y="-1141.4" font-family="Arial" font-size="14.00" fill="#666666">[integer]</text>
<polygon fill="none" stroke="black" points="1280.56,-1098.4 1280.56,-1129.2 1570.81,-1129.2 1570.81,-1098.4 1280.56,-1098.4"/>
<text text-anchor="start" x="1287.56" y="-1110.6" font-family="Arial" font-size="14.00">unit_price </text>
<text text-anchor="start" x="1352.15" y="-1110.6" font-family="Arial" font-size="14.00" fill="#666666">[numeric(10,2)]</text>
<polygon fill="none" stroke="black" points="1280.56,-1067.6 1280.56,-1098.4 1570.81,-1098.4 1570.81,-1067.6 1280.56,-1067.6"/>
<text text-anchor="start" x="1287.56" y="-1079.8" font-family="Arial" font-size="14.00">created_at </text>
<text text-anchor="start" x="1357.61" y="-1079.8" font-family="Arial" font-size="14.00" fill="#666666">[timestamp(0) without time zone]</text>
<polygon fill="none" stroke="black" points="1280.56,-1036.8 1280.56,-1067.6 1570.81,-1067.6 1570.81,-1036.8 1280.56,-1036.8"/>
<text text-anchor="start" x="1287.56" y="-1049" font-family="Arial" font-size="14.00">updated_at </text>
<text text-anchor="start" x="1361.52" y="-1049" font-family="Arial" font-size="14.00" fill="#666666">[timestamp(0) without time zone]</text>
</g>
<!-- public.order_items&#45;&gt;public.products -->
<g id="edge4" class="edge">
<title>public.order_items:product_id&#45;&gt;public.products:id</title>
<path fill="none" stroke="black" d="M1269.47,-1174.9C1188.45,-1166.32 1264.72,-1049.13 1228.69,-962.8 1202.45,-899.93 1215.93,-832.6 1147.81,-832.6"/>
<polygon fill="black" stroke="black" points="1269.24,-1174.89 1279,-1179.88 1274.57,-1175.15 1278.89,-1175.37 1278.89,-1175.37 1278.89,-1175.37 1274.57,-1175.15 1279.45,-1170.89 1269.24,-1174.89"/>
<text text-anchor="start" x="1286.56" y="-1185.4" font-family="Arial" font-size="10.00">FOREIGN KEY (product_id) REFERENCES products(id) ON DELETE RESTRICT</text>
</g>
<!-- public.order_items&#45;&gt;public.orders -->
<g id="edge5" class="edge">
<title>public.order_items:order_id&#45;&gt;public.orders:id</title>
<path fill="none" stroke="black" d="M1582.16,-1205.65C1661.2,-1196.66 1599.07,-1079.89 1570.81,-993.6 1548.87,-926.57 1499.7,-932.16 1477.56,-865.2 1464.41,-825.45 1434.69,-771 1476.56,-771"/>
<polygon fill="black" stroke="black" points="1582.13,-1205.65 1571.91,-1201.69 1576.81,-1205.93 1572.48,-1206.16 1572.48,-1206.16 1572.48,-1206.16 1576.81,-1205.93 1572.39,-1210.68 1582.13,-1205.65"/>
<text text-anchor="start" x="1223.07" y="-1216.2" font-family="Arial" font-size="10.00">FOREIGN KEY (order_id) REFERENCES orders(id) ON DELETE CASCADE</text>
</g>
<!-- public.payments -->
<g id="node7" class="node">
<title>public.payments</title>
<polygon fill="#efefef" stroke="none" points="1675.56,-1283.2 1675.56,-1318.8 1965.81,-1318.8 1965.81,-1283.2 1675.56,-1283.2"/>
<polygon fill="none" stroke="black" points="1675.56,-1283.2 1675.56,-1318.8 1965.81,-1318.8 1965.81,-1283.2 1675.56,-1283.2"/>
<text text-anchor="start" x="1699.2" y="-1296.6" font-family="Arial Bold" font-size="18.00">public.payments</text>
<text text-anchor="start" x="1817.68" y="-1296.6" font-family="Arial" font-size="14.00">    </text>
<text text-anchor="start" x="1848.8" y="-1296.6" font-family="Arial" font-size="14.00" fill="#666666">[BASE TABLE]</text>
<polygon fill="none" stroke="black" points="1675.56,-1252.4 1675.56,-1283.2 1965.81,-1283.2 1965.81,-1252.4 1675.56,-1252.4"/>
<text text-anchor="start" x="1682.56" y="-1264.6" font-family="Arial" font-size="14.00">id </text>
<text text-anchor="start" x="1697.35" y="-1264.6" font-family="Arial" font-size="14.00" fill="#666666">[bigint]</text>
<polygon fill="none" stroke="black" points="1675.56,-1221.6 1675.56,-1252.4 1965.81,-1252.4 1965.81,-1221.6 1675.56,-1221.6"/>
<text text-anchor="start" x="1682.56" y="-1233.8" font-family="Arial" font-size="14.00">order_id </text>
<text text-anchor="start" x="1737.81" y="-1233.8" font-family="Arial" font-size="14.00" fill="#666666">[bigint]</text>
<polygon fill="none" stroke="black" points="1675.56,-1190.8 1675.56,-1221.6 1965.81,-1221.6 1965.81,-1190.8 1675.56,-1190.8"/>
<text text-anchor="start" x="1682.56" y="-1203" font-family="Arial" font-size="14.00">amount </text>
<text text-anchor="start" x="1733.15" y="-1203" font-family="Arial" font-size="14.00" fill="#666666">[numeric(10,2)]</text>
<polygon fill="none" stroke="black" points="1675.56,-1160 1675.56,-1190.8 1965.81,-1190.8 1965.81,-1160 1675.56,-1160"/>
<text text-anchor="start" x="1682.56" y="-1172.2" font-family="Arial" font-size="14.00">status </text>
<text text-anchor="start" x="1723.8" y="-1172.2" font-family="Arial" font-size="14.00" fill="#666666">[varchar(255)]</text>
<polygon fill="none" stroke="black" points="1675.56,-1129.2 1675.56,-1160 1965.81,-1160 1965.81,-1129.2 1675.56,-1129.2"/>
<text text-anchor="start" x="1682.56" y="-1141.4" font-family="Arial" font-size="14.00">provider </text>
<text text-anchor="start" x="1737.03" y="-1141.4" font-family="Arial" font-size="14.00" fill="#666666">[varchar(255)]</text>
<polygon fill="none" stroke="black" points="1675.56,-1098.4 1675.56,-1129.2 1965.81,-1129.2 1965.81,-1098.4 1675.56,-1098.4"/>
<text text-anchor="start" x="1682.56" y="-1110.6" font-family="Arial" font-size="14.00">provider_transaction_id </text>
<text text-anchor="start" x="1831.98" y="-1110.6" font-family="Arial" font-size="14.00" fill="#666666">[varchar(255)]</text>
<polygon fill="none" stroke="black" points="1675.56,-1067.6 1675.56,-1098.4 1965.81,-1098.4 1965.81,-1067.6 1675.56,-1067.6"/>
<text text-anchor="start" x="1682.56" y="-1079.8" font-family="Arial" font-size="14.00">paid_at </text>
<text text-anchor="start" x="1732.38" y="-1079.8" font-family="Arial" font-size="14.00" fill="#666666">[timestamp(0) without time zone]</text>
<polygon fill="none" stroke="black" points="1675.56,-1036.8 1675.56,-1067.6 1965.81,-1067.6 1965.81,-1036.8 1675.56,-1036.8"/>
<text text-anchor="start" x="1682.56" y="-1049" font-family="Arial" font-size="14.00">created_at </text>
<text text-anchor="start" x="1752.61" y="-1049" font-family="Arial" font-size="14.00" fill="#666666">[timestamp(0) without time zone]</text>
<polygon fill="none" stroke="black" points="1675.56,-1006 1675.56,-1036.8 1965.81,-1036.8 1965.81,-1006 1675.56,-1006"/>
<text text-anchor="start" x="1682.56" y="-1018.2" font-family="Arial" font-size="14.00">updated_at </text>
<text text-anchor="start" x="1756.52" y="-1018.2" font-family="Arial" font-size="14.00" fill="#666666">[timestamp(0) without time zone]</text>
</g>
<!-- public.payments&#45;&gt;public.orders -->
<g id="edge6" class="edge">
<title>public.payments:order_id&#45;&gt;public.orders:id</title>
<path fill="none" stroke="black" d="M1664.57,-1234.69C1618.32,-1211.24 1654.3,-1015.95 1675.56,-962.8 1697.72,-907.38 1745.46,-920.54 1767.81,-865.2 1783.5,-826.38 1810.68,-771 1768.81,-771"/>
<polygon fill="black" stroke="black" points="1664.49,-1234.67 1673.22,-1241.31 1669.69,-1235.87 1673.91,-1236.85 1673.91,-1236.85 1673.91,-1236.85 1669.69,-1235.87 1675.25,-1232.54 1664.49,-1234.67"/>
<text text-anchor="start" x="1681.56" y="-1247" font-family="Arial" font-size="10.00">FOREIGN KEY (order_id) REFERENCES orders(id) ON DELETE RESTRICT</text>
</g>
<!-- public.inventory_stocks -->
<g id="node8" class="node">
<title>public.inventory_stocks</title>
<polygon fill="#efefef" stroke="none" points="412.2,-1237 412.2,-1272.6 723.17,-1272.6 723.17,-1237 412.2,-1237"/>
<polygon fill="none" stroke="black" points="412.2,-1237 412.2,-1272.6 723.17,-1272.6 723.17,-1237 412.2,-1237"/>
<text text-anchor="start" x="419.2" y="-1250.4" font-family="Arial Bold" font-size="18.00">public.inventory_stocks</text>
<text text-anchor="start" x="591.68" y="-1250.4" font-family="Arial" font-size="14.00">    </text>
<text text-anchor="start" x="622.8" y="-1250.4" font-family="Arial" font-size="14.00" fill="#666666">[BASE TABLE]</text>
<polygon fill="none" stroke="black" points="412.2,-1206.2 412.2,-1237 723.17,-1237 723.17,-1206.2 412.2,-1206.2"/>
<text text-anchor="start" x="419.2" y="-1218.4" font-family="Arial" font-size="14.00">id </text>
<text text-anchor="start" x="433.99" y="-1218.4" font-family="Arial" font-size="14.00" fill="#666666">[bigint]</text>
<polygon fill="none" stroke="black" points="412.2,-1175.4 412.2,-1206.2 723.17,-1206.2 723.17,-1175.4 412.2,-1175.4"/>
<text text-anchor="start" x="419.2" y="-1187.6" font-family="Arial" font-size="14.00">product_id </text>
<text text-anchor="start" x="488.47" y="-1187.6" font-family="Arial" font-size="14.00" fill="#666666">[bigint]</text>
<polygon fill="none" stroke="black" points="412.2,-1144.6 412.2,-1175.4 723.17,-1175.4 723.17,-1144.6 412.2,-1144.6"/>
<text text-anchor="start" x="419.2" y="-1156.8" font-family="Arial" font-size="14.00">quantity </text>
<text text-anchor="start" x="472.13" y="-1156.8" font-family="Arial" font-size="14.00" fill="#666666">[integer]</text>
<polygon fill="none" stroke="black" points="412.2,-1113.8 412.2,-1144.6 723.17,-1144.6 723.17,-1113.8 412.2,-1113.8"/>
<text text-anchor="start" x="419.2" y="-1126" font-family="Arial" font-size="14.00">reserved </text>
<text text-anchor="start" x="477.56" y="-1126" font-family="Arial" font-size="14.00" fill="#666666">[integer]</text>
<polygon fill="none" stroke="black" points="412.2,-1083 412.2,-1113.8 723.17,-1113.8 723.17,-1083 412.2,-1083"/>
<text text-anchor="start" x="419.2" y="-1095.2" font-family="Arial" font-size="14.00">created_at </text>
<text text-anchor="start" x="489.25" y="-1095.2" font-family="Arial" font-size="14.00" fill="#666666">[timestamp(0) without time zone]</text>
<polygon fill="none" stroke="black" points="412.2,-1052.2 412.2,-1083 723.17,-1083 723.17,-1052.2 412.2,-1052.2"/>
<text text-anchor="start" x="419.2" y="-1064.4" font-family="Arial" font-size="14.00">updated_at </text>
<text text-anchor="start" x="493.16" y="-1064.4" font-family="Arial" font-size="14.00" fill="#666666">[timestamp(0) without time zone]</text>
</g>
<!-- public.inventory_stocks&#45;&gt;public.products -->
<g id="edge7" class="edge">
<title>public.inventory_stocks:product_id&#45;&gt;public.products:id</title>
<path fill="none" stroke="black" d="M734.07,-1188.24C773.32,-1166.15 756.48,-1007.48 774.69,-962.8 800.39,-899.71 787.44,-832.6 855.56,-832.6"/>
<polygon fill="black" stroke="black" points="734.17,-1188.21 723.37,-1186.36 729.01,-1189.55 724.82,-1190.63 724.82,-1190.63 724.82,-1190.63 729.01,-1189.55 725.62,-1195.07 734.17,-1188.21"/>
<text text-anchor="start" x="543.29" y="-1174.8" font-family="Arial" font-size="10.00">FOREIGN KEY (product_id) REFERENCES products(id) ON DELETE CASCADE</text>
</g>
<!-- public.inventory_movements -->
<g id="node9" class="node">
<title>public.inventory_movements</title>
<polygon fill="#efefef" stroke="none" points="827.21,-1267.8 827.21,-1303.4 1176.16,-1303.4 1176.16,-1267.8 827.21,-1267.8"/>
<polygon fill="none" stroke="black" points="827.21,-1267.8 827.21,-1303.4 1176.16,-1303.4 1176.16,-1267.8 827.21,-1267.8"/>
<text text-anchor="start" x="834.21" y="-1281.2" font-family="Arial Bold" font-size="18.00">public.inventory_movements</text>
<text text-anchor="start" x="1044.67" y="-1281.2" font-family="Arial" font-size="14.00">    </text>
<text text-anchor="start" x="1075.79" y="-1281.2" font-family="Arial" font-size="14.00" fill="#666666">[BASE TABLE]</text>
<polygon fill="none" stroke="black" points="827.21,-1237 827.21,-1267.8 1176.16,-1267.8 1176.16,-1237 827.21,-1237"/>
<text text-anchor="start" x="834.21" y="-1249.2" font-family="Arial" font-size="14.00">id </text>
<text text-anchor="start" x="849" y="-1249.2" font-family="Arial" font-size="14.00" fill="#666666">[bigint]</text>
<polygon fill="none" stroke="black" points="827.21,-1206.2 827.21,-1237 1176.16,-1237 1176.16,-1206.2 827.21,-1206.2"/>
<text text-anchor="start" x="834.21" y="-1218.4" font-family="Arial" font-size="14.00">product_id </text>
<text text-anchor="start" x="903.48" y="-1218.4" font-family="Arial" font-size="14.00" fill="#666666">[bigint]</text>
<polygon fill="none" stroke="black" points="827.21,-1175.4 827.21,-1206.2 1176.16,-1206.2 1176.16,-1175.4 827.21,-1175.4"/>
<text text-anchor="start" x="834.21" y="-1187.6" font-family="Arial" font-size="14.00">type </text>
<text text-anchor="start" x="864.56" y="-1187.6" font-family="Arial" font-size="14.00" fill="#666666">[varchar(255)]</text>
<polygon fill="none" stroke="black" points="827.21,-1144.6 827.21,-1175.4 1176.16,-1175.4 1176.16,-1144.6 827.21,-1144.6"/>
<text text-anchor="start" x="834.21" y="-1156.8" font-family="Arial" font-size="14.00">quantity </text>
<text text-anchor="start" x="887.13" y="-1156.8" font-family="Arial" font-size="14.00" fill="#666666">[integer]</text>
<polygon fill="none" stroke="black" points="827.21,-1113.8 827.21,-1144.6 1176.16,-1144.6 1176.16,-1113.8 827.21,-1113.8"/>
<text text-anchor="start" x="834.21" y="-1126" font-family="Arial" font-size="14.00">reference_type </text>
<text text-anchor="start" x="931.49" y="-1126" font-family="Arial" font-size="14.00" fill="#666666">[varchar(255)]</text>
<polygon fill="none" stroke="black" points="827.21,-1083 827.21,-1113.8 1176.16,-1113.8 1176.16,-1083 827.21,-1083"/>
<text text-anchor="start" x="834.21" y="-1095.2" font-family="Arial" font-size="14.00">reference_id </text>
<text text-anchor="start" x="915.93" y="-1095.2" font-family="Arial" font-size="14.00" fill="#666666">[bigint]</text>
<polygon fill="none" stroke="black" points="827.21,-1052.2 827.21,-1083 1176.16,-1083 1176.16,-1052.2 827.21,-1052.2"/>
<text text-anchor="start" x="834.21" y="-1064.4" font-family="Arial" font-size="14.00">created_at </text>
<text text-anchor="start" x="904.26" y="-1064.4" font-family="Arial" font-size="14.00" fill="#666666">[timestamp(0) without time zone]</text>
<polygon fill="none" stroke="black" points="827.21,-1021.4 827.21,-1052.2 1176.16,-1052.2 1176.16,-1021.4 827.21,-1021.4"/>
<text text-anchor="start" x="834.21" y="-1033.6" font-family="Arial" font-size="14.00">updated_at </text>
<text text-anchor="start" x="908.17" y="-1033.6" font-family="Arial" font-size="14.00" fill="#666666">[timestamp(0) without time zone]</text>
</g>
<!-- public.inventory_movements&#45;&gt;public.products -->
<g id="edge8" class="edge">
<title>public.inventory_movements:product_id&#45;&gt;public.products:id</title>
<path fill="none" stroke="black" d="M1185.44,-1215.8C1216.19,-1167.41 1188.03,-832.6 1147.81,-832.6"/>
<polygon fill="black" stroke="black" points="1185.63,-1215.67 1174.85,-1217.72 1181.26,-1218.73 1177.71,-1221.22 1177.71,-1221.22 1177.71,-1221.22 1181.26,-1218.73 1180.02,-1225.09 1185.63,-1215.67"/>
<text text-anchor="start" x="806.74" y="-1231.6" font-family="Arial" font-size="10.00">FOREIGN KEY (product_id) REFERENCES products(id) ON DELETE RESTRICT</text>
</g>
</g>
</svg>
